<svg version="1.1" id="Layer_1" xmlns="http://www.w3.org/2000/svg" xmlns:xlink="http://www.w3.org/1999/xlink" x="0px" y="0px"
	 width="100%" viewBox="0 0 360 364" enable-background="new 0 0 360 364" xml:space="preserve">
<path fill="#000000" opacity="1.000000" stroke="none" 
	d="
M245.000000,365.000000 
	C163.361359,365.000000 82.222710,365.000000 1.042032,365.000000 
	C1.042032,243.736588 1.042032,122.473160 1.042032,1.104864 
	C120.888580,1.104864 240.777283,1.104864 360.833008,1.104864 
	C360.833008,122.333145 360.833008,243.666550 360.833008,365.000000 
	C322.473236,365.000000 283.986603,365.000000 245.000000,365.000000 
M226.906509,89.003250 
	C226.906509,89.003250 226.766525,89.068420 226.679123,88.815910 
	C226.529251,88.647591 226.372910,88.641205 225.740158,88.291466 
	C225.316193,88.120216 224.892242,87.948975 224.009964,87.247765 
	C218.944427,84.520073 213.878906,81.792381 208.652313,78.408882 
	C204.591919,76.178612 200.531540,73.948349 196.011459,71.200966 
	C194.015472,70.109116 192.019501,69.017265 189.685303,67.445137 
	C189.137543,67.260101 188.589767,67.075073 188.050430,66.953659 
	C188.050430,66.953659 188.098923,66.909760 187.730087,66.330421 
	C182.052734,61.347424 176.951019,62.071114 170.429382,65.962601 
	C140.746796,83.674309 110.848122,101.044800 80.629387,117.821518 
	C73.610336,121.718315 71.594971,126.062920 73.123985,133.981262 
	C73.147072,138.071075 73.170166,142.160873 73.061043,147.089569 
	C73.085747,150.729538 73.110451,154.369492 72.956619,158.879547 
	C73.023453,162.020554 73.090286,165.161545 73.014191,169.071167 
	C73.048569,172.050446 73.082954,175.029709 72.942261,178.856979 
	C73.013901,181.723282 73.085541,184.589600 72.990700,188.320267 
	C73.044998,193.202103 73.099289,198.083954 72.969719,203.865967 
	C73.023453,208.247208 73.077187,212.628464 72.949532,217.894211 
	C73.009293,220.597229 73.069054,223.300247 72.937347,226.845688 
	C72.996712,228.566025 73.056084,230.286346 72.917534,232.916702 
	C72.895500,234.736664 73.114708,236.598526 72.807220,238.368912 
	C71.793304,244.206604 74.056358,247.753525 80.177628,249.672043 
	C84.071991,251.801498 87.966354,253.930954 92.076057,256.506836 
	C92.076057,256.506836 92.480499,256.793549 92.480499,256.793549 
	C92.480499,256.793549 92.976112,256.780701 93.263962,257.098511 
	C93.263962,257.098511 93.692070,257.122803 94.084885,257.702759 
	C98.036003,259.874817 101.987129,262.046875 106.303093,264.788177 
	C108.432945,265.897705 110.562790,267.007202 113.108391,268.675476 
	C116.403770,270.459686 119.699142,272.243866 123.377380,274.569946 
	C125.545303,275.733185 127.713226,276.896393 130.116928,278.511169 
	C130.428055,278.603943 130.739182,278.696716 131.163589,278.982635 
	C131.163589,278.982635 131.377243,278.915588 131.750336,279.431610 
	C134.507446,280.910339 137.264557,282.389069 140.360382,284.195007 
	C140.360382,284.195007 140.826797,284.260376 140.930359,284.153900 
	C140.930359,284.153900 140.789032,284.199615 141.149506,284.773254 
	C143.745941,286.194733 146.342392,287.616241 149.328354,289.594666 
	C152.762650,291.438629 156.196930,293.282623 159.941132,295.599670 
	C160.289551,295.714630 160.637955,295.829620 161.372742,296.323395 
	C161.541504,296.386993 161.710266,296.450592 162.300751,296.972900 
	C164.191895,298.001312 166.083038,299.029724 168.384293,300.594025 
	C169.666443,301.361725 171.082977,301.971069 172.207153,302.924957 
	C176.701080,306.738312 180.774658,305.927673 185.659851,303.066071 
	C217.644089,284.330444 249.803711,265.894348 281.849884,247.263748 
	C283.211639,246.472046 284.768402,244.814240 284.931702,243.408585 
	C285.289764,240.326782 284.811066,237.147781 284.867859,233.227386 
	C284.854706,229.579651 284.841553,225.931900 284.970032,221.345291 
	C284.925323,217.706573 284.880585,214.067856 285.027069,209.585419 
	C284.970581,205.052277 284.914093,200.519150 285.033173,195.066910 
	C284.983246,189.707016 284.933319,184.347122 285.053619,178.068604 
	C284.993896,173.040817 284.934174,168.013016 285.049072,162.071930 
	C284.989990,157.710541 284.930939,153.349136 285.055969,148.088562 
	C284.996338,144.723282 284.936707,141.358017 285.067505,137.080338 
	C285.080627,135.252426 285.100037,133.424530 285.105835,131.596603 
	C285.136932,121.742538 284.958069,121.477425 276.037506,117.420639 
	C275.686920,117.293564 275.336304,117.166489 274.988312,116.992607 
	C274.988312,116.992607 274.953644,117.024223 274.628418,116.528770 
	C274.082550,116.332954 273.536652,116.137138 272.734039,115.489853 
	C272.567291,115.443306 272.400543,115.396767 271.796936,114.914970 
	C269.913788,113.921013 268.030609,112.927055 265.785065,111.348160 
	C261.691620,109.107468 257.598206,106.866776 253.441605,104.654640 
	C253.441605,104.654640 253.387512,104.697998 253.059692,104.148651 
	C252.660507,104.001976 252.261337,103.855301 251.533966,103.159058 
	C249.592682,102.125626 247.651413,101.092186 245.648010,99.818893 
	C245.648010,99.818893 245.239456,99.861099 244.674896,99.252556 
	C244.164673,99.043144 243.654449,98.833733 242.743454,98.107697 
	C239.551102,96.374397 236.358734,94.641098 232.823730,92.345306 
	C231.273849,91.540771 229.723984,90.736237 227.909058,89.481621 
	C227.593353,89.370209 227.277634,89.258789 226.906509,89.003250 
z"/>
<path fill="#A48231" opacity="1.000000" stroke="none" 
	d="
M284.674011,234.008484 
	C284.811066,237.147781 285.289764,240.326782 284.931702,243.408585 
	C284.768402,244.814240 283.211639,246.472046 281.849884,247.263748 
	C249.803711,265.894348 217.644089,284.330444 185.659851,303.066071 
	C180.774658,305.927673 176.701080,306.738312 172.207153,302.924957 
	C171.082977,301.971069 169.666443,301.361725 168.387451,300.122498 
	C169.647278,299.311218 171.233658,299.336975 172.095551,298.559570 
	C174.234482,296.630249 176.042633,294.334198 178.355209,292.151245 
	C179.356339,291.927185 180.051559,291.851074 180.606094,291.531158 
	C210.457642,274.308380 240.307526,257.082642 270.103485,239.764084 
	C271.384399,239.019547 272.156403,237.399384 273.620026,236.143005 
	C277.607727,235.402100 281.140869,234.705292 284.674011,234.008484 
z"/>
<path fill="#A27A30" opacity="1.000000" stroke="none" 
	d="
M73.250481,133.165649 
	C71.594971,126.062920 73.610336,121.718315 80.629387,117.821518 
	C110.848122,101.044800 140.746796,83.674309 170.429382,65.962601 
	C176.951019,62.071114 182.052734,61.347424 187.537766,66.653625 
	C183.769440,69.447922 177.960434,69.565704 177.736252,76.075073 
	C148.112671,93.310623 118.743988,110.303856 89.410271,127.357224 
	C87.744057,128.325882 86.364273,129.787247 84.435066,131.014404 
	C80.429466,131.728210 76.839973,132.446930 73.250481,133.165649 
z"/>
<path fill="#F5DF8D" opacity="1.000000" stroke="none" 
	d="
M275.992371,118.000755 
	C284.958069,121.477425 285.136932,121.742538 285.105835,131.596603 
	C285.100037,133.424530 285.080627,135.252426 284.562866,137.538757 
	C280.429199,138.692871 276.800171,139.388550 273.092712,139.663010 
	C274.307770,132.300888 271.885010,127.477760 265.027069,125.140022 
	C264.602570,124.995338 264.288116,124.527802 263.985840,123.853561 
	C266.777405,120.781174 269.505615,118.065704 272.233826,115.350227 
	C272.400543,115.396767 272.567291,115.443306 273.017700,115.972626 
	C273.852112,116.645012 274.402893,116.834618 274.953644,117.024223 
	C274.953644,117.024223 274.988312,116.992607 275.097412,117.230072 
	C275.408356,117.733871 275.670288,117.911613 275.992371,118.000755 
z"/>
<path fill="#F5DF8D" opacity="1.000000" stroke="none" 
	d="
M79.820984,249.080933 
	C74.056358,247.753525 71.793304,244.206604 72.807220,238.368912 
	C73.114708,236.598526 72.895500,234.736664 73.343307,232.522247 
	C77.834488,235.450241 81.118378,231.067032 84.917976,231.428802 
	C84.161819,236.498199 85.806442,239.594894 90.359138,241.343628 
	C92.426613,242.137741 94.184418,243.738037 95.734055,245.120026 
	C90.197266,246.538605 85.009125,247.809769 79.820984,249.080933 
z"/>
<path fill="#BF9D4F" opacity="1.000000" stroke="none" 
	d="
M208.813370,79.064697 
	C213.878906,81.792381 218.944427,84.520073 223.844849,87.597076 
	C220.123062,90.269081 216.566406,92.591782 212.668930,94.855110 
	C207.229340,91.757675 202.130569,88.719620 197.040817,85.320953 
	C198.488480,83.668282 199.735825,81.966454 201.412262,81.183853 
	C203.708633,80.111870 206.330826,79.737854 208.813370,79.064697 
z"/>
<path fill="#CEB25F" opacity="1.000000" stroke="none" 
	d="
M284.883392,178.987228 
	C284.933319,184.347122 284.983246,189.707016 284.542480,195.527435 
	C280.421326,196.654861 276.790863,197.321762 273.088531,197.526581 
	C273.059662,191.706238 273.102692,186.347992 273.504150,181.041885 
	C277.536224,180.391769 281.209808,179.689499 284.883392,178.987228 
z"/>
<path fill="#DABF6C" opacity="1.000000" stroke="none" 
	d="
M284.968506,178.527924 
	C281.209808,179.689499 277.536224,180.391769 273.434387,180.583572 
	C273.063171,176.044052 273.120209,172.014999 273.537506,167.980240 
	C277.556671,166.311432 281.215576,164.648331 284.874481,162.985229 
	C284.934174,168.013016 284.993896,173.040817 284.968506,178.527924 
z"/>
<path fill="#E6CD7A" opacity="1.000000" stroke="none" 
	d="
M284.961792,162.528564 
	C281.215576,164.648331 277.556671,166.311432 273.462585,167.523468 
	C273.076355,162.435745 273.125275,157.799118 273.586273,153.110779 
	C277.622864,151.701965 281.247345,150.344864 284.871857,148.987762 
	C284.930939,153.349136 284.989990,157.710541 284.961792,162.528564 
z"/>
<path fill="#E4C977" opacity="1.000000" stroke="none" 
	d="
M253.504761,104.626076 
	C257.598206,106.866776 261.691620,109.107468 265.604858,111.717621 
	C263.339478,113.100418 261.033264,113.828506 259.239929,115.218407 
	C257.835754,116.306725 257.067017,118.214912 255.678711,119.715118 
	C250.562912,116.767090 245.784317,113.862785 241.282440,110.687714 
	C246.063522,109.564491 251.314285,110.251717 253.504761,104.626076 
z"/>
<path fill="#C3A755" opacity="1.000000" stroke="none" 
	d="
M273.160400,197.988647 
	C276.790863,197.321762 280.421326,196.654861 284.454712,195.987000 
	C284.914093,200.519150 284.970581,205.052277 284.484924,209.893066 
	C280.351837,211.129059 276.760925,212.057388 273.100159,212.524933 
	C273.073700,207.372314 273.117035,202.680481 273.160400,197.988647 
z"/>
<path fill="#DABF6C" opacity="1.000000" stroke="none" 
	d="
M73.153587,202.965790 
	C73.099289,198.083954 73.044998,193.202103 73.412560,188.093506 
	C75.256256,188.047104 76.836624,188.709274 78.066017,188.304749 
	C80.424065,187.528900 82.582893,186.147568 84.895882,185.474350 
	C84.919029,190.572372 84.870674,195.213501 84.402985,199.891113 
	C82.188545,200.692612 80.445358,201.640228 78.583252,202.169479 
	C76.838837,202.665268 74.968506,202.718048 73.153587,202.965790 
z"/>
<path fill="#EBD582" opacity="1.000000" stroke="none" 
	d="
M79.999306,249.376495 
	C85.009125,247.809769 90.197266,246.538605 96.073044,245.164047 
	C98.513245,246.108932 100.265808,247.157196 102.140106,248.397461 
	C102.484787,248.818863 102.756073,248.940521 103.046249,248.976990 
	C103.016808,248.999573 103.036705,248.928085 103.174400,249.168472 
	C103.655914,249.494354 103.999733,249.579849 104.358383,249.671936 
	C104.373215,249.678497 104.398407,249.657104 104.266579,250.007462 
	C100.653854,252.612823 97.172966,254.867813 93.692078,257.122803 
	C93.692070,257.122803 93.263962,257.098511 92.988052,256.747070 
	C92.473183,256.169983 92.189377,256.058228 91.860718,256.060394 
	C87.966354,253.930954 84.071991,251.801498 79.999306,249.376495 
z"/>
<path fill="#D2B867" opacity="1.000000" stroke="none" 
	d="
M122.994522,274.028046 
	C119.699142,272.243866 116.403770,270.459686 113.268219,268.335693 
	C117.329720,266.124847 119.856720,263.263336 120.443787,258.816345 
	C125.212326,261.546600 129.627335,264.209839 133.979218,267.230865 
	C130.275543,269.735107 126.635040,271.881592 122.994522,274.028046 
z"/>
<path fill="#C3A755" opacity="1.000000" stroke="none" 
	d="
M213.009735,94.914474 
	C216.566406,92.591782 220.123062,90.269081 224.074005,87.862053 
	C224.892242,87.948975 225.316193,88.120216 226.061951,88.597885 
	C226.383759,88.904297 226.766525,89.068420 226.766525,89.068420 
	C226.766525,89.068420 226.906509,89.003250 227.087631,89.273056 
	C227.570541,89.672470 227.872314,89.802086 228.174103,89.931702 
	C229.723984,90.736237 231.273849,91.540771 232.632111,92.693878 
	C230.247772,96.132881 228.055054,99.223312 225.513397,102.235519 
	C221.112869,99.743019 217.061310,97.328743 213.009735,94.914474 
z"/>
<path fill="#B89845" opacity="1.000000" stroke="none" 
	d="
M161.879028,296.514221 
	C161.710266,296.450592 161.541504,296.386993 161.018188,295.906952 
	C160.319473,295.369232 159.975342,295.247925 159.631210,295.126617 
	C156.196930,293.282623 152.762650,291.438629 149.447815,289.171387 
	C152.410553,286.080170 155.253845,283.412201 158.447189,280.820129 
	C161.527206,282.646729 164.257172,284.397522 167.153961,286.468109 
	C168.517792,289.317932 168.095062,290.918823 165.259781,292.223694 
	C163.786697,292.901642 162.984375,295.037140 161.879028,296.514221 
z"/>
<path fill="#B08F3D" opacity="1.000000" stroke="none" 
	d="
M73.187233,133.573456 
	C76.839973,132.446930 80.429466,131.728210 84.488289,131.476562 
	C84.916565,136.632507 84.875504,141.321381 84.509644,145.942764 
	C82.188103,143.259979 80.078766,142.730896 77.311470,145.006821 
	C76.289207,145.847580 74.585930,145.860306 73.193253,146.250687 
	C73.170166,142.160873 73.147072,138.071075 73.187233,133.573456 
z"/>
<path fill="#B08F3D" opacity="1.000000" stroke="none" 
	d="
M208.732849,78.736786 
	C206.330826,79.737854 203.708633,80.111870 201.412262,81.183853 
	C199.735825,81.966454 198.488480,83.668282 196.708160,85.279587 
	C193.249420,83.696167 190.132385,81.793495 187.064087,79.536407 
	C190.232285,76.694023 193.351715,74.206062 196.471146,71.718094 
	C200.531540,73.948349 204.591919,76.178612 208.732849,78.736786 
z"/>
<path fill="#CEB25F" opacity="1.000000" stroke="none" 
	d="
M84.824371,185.017426 
	C82.582893,186.147568 80.424065,187.528900 78.066017,188.304749 
	C76.836624,188.709274 75.256256,188.047104 73.495804,187.661316 
	C73.085541,184.589600 73.013901,181.723282 73.376862,178.389816 
	C77.484367,176.286331 81.157272,174.650009 84.898582,173.469315 
	C84.919449,177.622452 84.871910,181.319931 84.824371,185.017426 
z"/>
<path fill="#E4C977" opacity="1.000000" stroke="none" 
	d="
M93.888481,257.412781 
	C97.172966,254.867813 100.653854,252.612823 104.602554,250.086075 
	C108.383858,251.838623 111.697350,253.862915 114.967102,256.266968 
	C113.322983,257.765747 111.757774,259.753754 110.114807,259.820221 
	C106.839188,259.952759 105.621674,261.115326 105.938248,264.218964 
	C101.987129,262.046875 98.036003,259.874817 93.888481,257.412781 
z"/>
<path fill="#DABF6C" opacity="1.000000" stroke="none" 
	d="
M253.473175,104.640358 
	C251.314285,110.251717 246.063522,109.564491 240.940674,110.651031 
	C238.214554,109.587036 236.106903,108.288963 234.055450,106.651855 
	C237.122513,103.749992 240.133377,101.187164 243.144226,98.624329 
	C243.654449,98.833733 244.164673,99.043144 245.031708,99.597267 
	C245.388504,99.941978 245.710129,100.058746 245.710129,100.058746 
	C247.651413,101.092186 249.592682,102.125626 251.875977,103.707779 
	C252.607819,104.403664 252.997665,104.550827 253.387512,104.697998 
	C253.387512,104.697998 253.441605,104.654640 253.473175,104.640358 
z"/>
<path fill="#C3A755" opacity="1.000000" stroke="none" 
	d="
M140.021667,283.867798 
	C137.264557,282.389069 134.507446,280.910339 131.902527,279.176392 
	C135.048279,276.255341 138.041855,273.589539 141.387817,270.970703 
	C144.940063,272.965179 148.139923,274.912750 151.024246,277.045990 
	C148.731339,281.446594 145.012955,283.182953 140.789032,284.199615 
	C140.789032,284.199615 140.930359,284.153900 140.880020,284.014954 
	C140.560349,283.873260 140.291000,283.870544 140.021667,283.867798 
z"/>
<path fill="#E4C977" opacity="1.000000" stroke="none" 
	d="
M73.061653,203.415878 
	C74.968506,202.718048 76.838837,202.665268 78.583252,202.169479 
	C80.445358,201.640228 82.188545,200.692612 84.472778,200.316910 
	C84.914322,204.474762 84.866745,208.243332 84.460876,212.017761 
	C80.445358,213.685654 76.788139,215.347672 73.130920,217.009705 
	C73.077187,212.628464 73.023453,208.247208 73.061653,203.415878 
z"/>
<path fill="#D2B867" opacity="1.000000" stroke="none" 
	d="
M242.943848,98.366013 
	C240.133377,101.187164 237.122513,103.749992 233.763596,106.636314 
	C232.847672,106.471115 232.279800,105.982422 231.889694,105.365540 
	C232.058380,105.051186 232.049301,104.865005 232.040222,104.678833 
	C231.868713,104.893639 231.697205,105.108452 231.192368,105.336899 
	C229.193466,104.338264 227.527908,103.326012 225.862335,102.313751 
	C228.055054,99.223312 230.247772,96.132881 232.803436,92.975121 
	C236.358734,94.641098 239.551102,96.374397 242.943848,98.366013 
z"/>
<path fill="#F0D984" opacity="1.000000" stroke="none" 
	d="
M284.963928,148.538162 
	C281.247345,150.344864 277.622864,151.701965 273.512634,152.681793 
	C273.074982,148.231079 273.123077,144.157654 273.171173,140.084229 
	C276.800171,139.388550 280.429199,138.692871 284.467651,137.994965 
	C284.936707,141.358017 284.996338,144.723282 284.963928,148.538162 
z"/>
<path fill="#A2803A" opacity="1.000000" stroke="none" 
	d="
M196.241302,71.459534 
	C193.351715,74.206062 190.232285,76.694023 186.722763,79.472206 
	C183.554703,78.456879 180.776718,77.151329 177.998734,75.845779 
	C177.960434,69.565704 183.769440,69.447922 187.722183,66.943298 
	C188.098923,66.909760 188.050430,66.953659 188.125427,67.174866 
	C188.808105,67.572517 189.415817,67.748970 190.023514,67.925423 
	C192.019501,69.017265 194.015472,70.109116 196.241302,71.459534 
z"/>
<path fill="#B89845" opacity="1.000000" stroke="none" 
	d="
M273.169983,212.985718 
	C276.760925,212.057388 280.351837,211.129059 284.389313,210.314941 
	C284.880585,214.067856 284.925323,217.706573 284.444946,221.730682 
	C280.335999,223.113968 276.752136,224.111893 273.122070,224.676208 
	C273.107239,220.490295 273.138611,216.738007 273.169983,212.985718 
z"/>
<path fill="#B08F3D" opacity="1.000000" stroke="none" 
	d="
M273.168243,225.109802 
	C276.752136,224.111893 280.335999,223.113968 284.374146,222.200104 
	C284.841553,225.931900 284.854706,229.579651 284.770935,233.617935 
	C281.140869,234.705292 277.607727,235.402100 273.587677,235.732391 
	C273.123260,231.947189 273.145752,228.528488 273.168243,225.109802 
z"/>
<path fill="#B89845" opacity="1.000000" stroke="none" 
	d="
M73.127151,146.670135 
	C74.585930,145.860306 76.289207,145.847580 77.311470,145.006821 
	C80.078766,142.730896 82.188103,143.259979 84.581223,146.391876 
	C84.933853,149.942398 84.890106,152.976334 84.479996,155.954590 
	C79.830986,153.360962 76.828773,157.483429 73.135155,158.009460 
	C73.110451,154.369492 73.085747,150.729538 73.127151,146.670135 
z"/>
<path fill="#B08F3D" opacity="1.000000" stroke="none" 
	d="
M162.089890,296.743561 
	C162.984375,295.037140 163.786697,292.901642 165.259781,292.223694 
	C168.095062,290.918823 168.517792,289.317932 167.507812,286.432007 
	C171.124466,288.112579 174.554062,290.149048 177.983673,292.185486 
	C176.042633,294.334198 174.234482,296.630249 172.095551,298.559570 
	C171.233658,299.336975 169.647278,299.311218 168.182404,299.854584 
	C166.083038,299.029724 164.191895,298.001312 162.089890,296.743561 
z"/>
<path fill="#EBD582" opacity="1.000000" stroke="none" 
	d="
M73.040222,217.451965 
	C76.788139,215.347672 80.445358,213.685654 84.538933,212.471985 
	C84.929825,216.614807 84.884369,220.309280 84.426880,224.002838 
	C80.386169,224.669037 76.757492,225.336151 73.128815,226.003265 
	C73.069054,223.300247 73.009293,220.597229 73.040222,217.451965 
z"/>
<path fill="#CEB25F" opacity="1.000000" stroke="none" 
	d="
M141.035431,270.923767 
	C138.041855,273.589539 135.048279,276.255341 131.715973,278.918365 
	C131.377243,278.915588 131.163589,278.982635 130.958466,278.698151 
	C130.505844,278.189148 130.215118,278.071136 129.881149,278.059601 
	C127.713226,276.896393 125.545303,275.733185 123.185959,274.299011 
	C126.635040,271.881592 130.275543,269.735107 134.322693,267.281006 
	C136.831360,268.290192 138.933395,269.606964 141.035431,270.923767 
z"/>
<path fill="#BF9D4F" opacity="1.000000" stroke="none" 
	d="
M73.045883,158.444504 
	C76.828773,157.483429 79.830986,153.360962 84.550171,156.403717 
	C84.942909,159.941940 84.899117,162.975311 84.535446,165.944946 
	C82.546410,165.743607 80.770386,165.182938 79.234001,165.570999 
	C77.113670,166.106552 75.174110,167.357834 73.157120,168.302551 
	C73.090286,165.161545 73.023453,162.020554 73.045883,158.444504 
z"/>
<path fill="#EBD582" opacity="1.000000" stroke="none" 
	d="
M256.015930,119.758835 
	C257.067017,118.214912 257.835754,116.306725 259.239929,115.218407 
	C261.033264,113.828506 263.339478,113.100418 265.786072,112.010094 
	C268.030609,112.927055 269.913788,113.921013 272.015381,115.132599 
	C269.505615,118.065704 266.777405,120.781174 263.634735,123.797882 
	C260.818817,122.652351 258.417389,121.205589 256.015930,119.758835 
z"/>
<path fill="#C3A755" opacity="1.000000" stroke="none" 
	d="
M73.085655,168.686859 
	C75.174110,167.357834 77.113670,166.106552 79.234001,165.570999 
	C80.770386,165.182938 82.546410,165.743607 84.605484,166.378601 
	C84.940331,168.921890 84.885254,170.967789 84.830177,173.013672 
	C81.157272,174.650009 77.484367,176.286331 73.464401,177.965820 
	C73.082954,175.029709 73.048569,172.050446 73.085655,168.686859 
z"/>
<path fill="#BF9D4F" opacity="1.000000" stroke="none" 
	d="
M140.969269,284.486450 
	C145.012955,283.182953 148.731339,281.446594 151.349091,277.099609 
	C154.025375,278.226410 156.061264,279.485321 158.097137,280.744263 
	C155.253845,283.412201 152.410553,286.080170 149.253052,288.892944 
	C146.342392,287.616241 143.745941,286.194733 140.969269,284.486450 
z"/>
<path fill="#DABF6C" opacity="1.000000" stroke="none" 
	d="
M106.120667,264.503571 
	C105.621674,261.115326 106.839188,259.952759 110.114807,259.820221 
	C111.757774,259.753754 113.322983,257.765747 115.297318,256.315277 
	C117.144264,256.905670 118.617264,257.827515 120.090263,258.749359 
	C119.856720,263.263336 117.329720,266.124847 113.060349,268.056305 
	C110.562790,267.007202 108.432945,265.897705 106.120667,264.503571 
z"/>
<path fill="#F0D984" opacity="1.000000" stroke="none" 
	d="
M73.033081,226.424484 
	C76.757492,225.336151 80.386169,224.669037 84.506607,224.435043 
	C84.945747,226.913742 84.893127,228.959335 84.840515,231.004913 
	C81.118378,231.067032 77.834488,235.450241 73.442268,232.067230 
	C73.056084,230.286346 72.996712,228.566025 73.033081,226.424484 
z"/>
<path fill="#A27A30" opacity="1.000000" stroke="none" 
	d="
M189.854401,67.685280 
	C189.415817,67.748970 188.808105,67.572517 188.121216,67.143059 
	C188.589767,67.075073 189.137543,67.260101 189.854401,67.685280 
z"/>
<path fill="#EBD582" opacity="1.000000" stroke="none" 
	d="
M274.791016,116.776497 
	C274.402893,116.834618 273.852112,116.645012 273.146057,116.198364 
	C273.536652,116.137138 274.082550,116.332954 274.791016,116.776497 
z"/>
<path fill="#E4C977" opacity="1.000000" stroke="none" 
	d="
M91.968384,256.283630 
	C92.189377,256.058228 92.473183,256.169983 92.844131,256.588135 
	C92.976112,256.780701 92.480499,256.793549 92.480499,256.793549 
	C92.480499,256.793549 92.076057,256.506836 91.968384,256.283630 
z"/>
<path fill="#C3A755" opacity="1.000000" stroke="none" 
	d="
M129.999039,278.285400 
	C130.215118,278.071136 130.505844,278.189148 130.901825,278.601562 
	C130.739182,278.696716 130.428055,278.603943 129.999039,278.285400 
z"/>
<path fill="#BF9D4F" opacity="1.000000" stroke="none" 
	d="
M140.191025,284.031403 
	C140.291000,283.870544 140.560349,283.873260 140.828247,284.068176 
	C140.826797,284.260376 140.360382,284.195007 140.191025,284.031403 
z"/>
<path fill="#B08F3D" opacity="1.000000" stroke="none" 
	d="
M159.786163,295.363159 
	C159.975342,295.247925 160.319473,295.369232 160.824997,295.717529 
	C160.637955,295.829620 160.289551,295.714630 159.786163,295.363159 
z"/>
<path fill="#BF9D4F" opacity="1.000000" stroke="none" 
	d="
M226.722824,88.942169 
	C226.766525,89.068420 226.383759,88.904297 226.296921,88.850525 
	C226.372910,88.641205 226.529251,88.647591 226.722824,88.942169 
z"/>
<path fill="#BF9D4F" opacity="1.000000" stroke="none" 
	d="
M228.041580,89.706657 
	C227.872314,89.802086 227.570541,89.672470 227.115341,89.345116 
	C227.277634,89.258789 227.593353,89.370209 228.041580,89.706657 
z"/>
<path fill="#D2B867" opacity="1.000000" stroke="none" 
	d="
M245.679077,99.938820 
	C245.710129,100.058746 245.388504,99.941978 245.313980,99.901535 
	C245.239456,99.861099 245.648010,99.818893 245.679077,99.938820 
z"/>
<path fill="#E4C977" opacity="1.000000" stroke="none" 
	d="
M253.223602,104.423325 
	C252.997665,104.550827 252.607819,104.403664 252.040070,103.982567 
	C252.261337,103.855301 252.660507,104.001976 253.223602,104.423325 
z"/>
<path fill="#EBD582" opacity="1.000000" stroke="none" 
	d="
M276.014954,117.710693 
	C275.670288,117.911613 275.408356,117.733871 275.096130,117.253471 
	C275.336304,117.166489 275.686920,117.293564 276.014954,117.710693 
z"/>
<path fill="#030202" opacity="1.000000" stroke="none" 
	d="
M84.917984,231.428802 
	C84.893127,228.959335 84.945747,226.913742 84.918640,224.435944 
	C84.884369,220.309280 84.929825,216.614807 84.897232,212.466125 
	C84.866745,208.243332 84.914322,204.474762 84.892113,200.280396 
	C84.870674,195.213501 84.919029,190.572372 84.895874,185.474335 
	C84.871910,181.319931 84.919449,177.622452 84.898582,173.469315 
	C84.885254,170.967789 84.940331,168.921890 84.925369,166.442352 
	C84.899117,162.975311 84.942909,159.941940 84.916527,156.459412 
	C84.890106,152.976334 84.933853,149.942398 84.906029,146.459351 
	C84.875504,141.321381 84.916565,136.632507 84.904404,131.481476 
	C86.364273,129.787247 87.744057,128.325882 89.410271,127.357224 
	C118.743988,110.303856 148.112671,93.310623 177.736252,76.075073 
	C180.776718,77.151329 183.554703,78.456879 186.674011,79.826630 
	C190.132385,81.793495 193.249420,83.696167 196.699127,85.640198 
	C202.130569,88.719620 207.229340,91.757675 212.668930,94.855103 
	C217.061310,97.328743 221.112869,99.743019 225.513397,102.235519 
	C227.527908,103.326012 229.193466,104.338264 231.258728,105.357880 
	C231.658401,105.365234 231.711929,105.493721 231.711929,105.493721 
	C232.279800,105.982422 232.847672,106.471115 233.707397,106.975349 
	C236.106903,108.288963 238.214554,109.587036 240.663971,110.921799 
	C245.784317,113.862785 250.562912,116.767090 255.678711,119.715118 
	C258.417389,121.205589 260.818817,122.652351 263.571381,124.154793 
	C264.288116,124.527802 264.602570,124.995338 265.027069,125.140022 
	C271.885010,127.477760 274.307770,132.300888 273.092712,139.663010 
	C273.123077,144.157654 273.074982,148.231079 273.100555,152.733490 
	C273.125275,157.799118 273.076355,162.435745 273.102356,167.529175 
	C273.120209,172.014999 273.063171,176.044052 273.075897,180.531418 
	C273.102692,186.347992 273.059662,191.706238 273.088531,197.526581 
	C273.117035,202.680481 273.073700,207.372314 273.100189,212.524933 
	C273.138611,216.738007 273.107239,220.490295 273.122070,224.676208 
	C273.145752,228.528488 273.123260,231.947189 273.133118,235.776505 
	C272.156403,237.399384 271.384399,239.019547 270.103485,239.764084 
	C240.307526,257.082642 210.457642,274.308380 180.606094,291.531158 
	C180.051559,291.851074 179.356339,291.927185 178.355209,292.151245 
	C174.554062,290.149048 171.124466,288.112579 167.340988,286.112244 
	C164.257172,284.397522 161.527206,282.646729 158.447189,280.820129 
	C156.061264,279.485321 154.025375,278.226410 151.664642,276.913879 
	C148.139923,274.912750 144.940063,272.965179 141.387817,270.970703 
	C138.933395,269.606964 136.831360,268.290192 134.385834,266.923218 
	C129.627335,264.209839 125.212326,261.546600 120.443787,258.816345 
	C118.617264,257.827515 117.144264,256.905670 115.341064,255.935501 
	C111.697350,253.862915 108.383858,251.838623 104.734390,249.735718 
	C104.398407,249.657104 104.373215,249.678497 104.215363,249.443726 
	C103.717232,249.115326 103.376968,249.021713 103.036705,248.928101 
	C103.036705,248.928085 103.016808,248.999573 102.952385,248.752899 
	C102.666161,248.209183 102.376297,248.108917 102.018372,248.205475 
	C100.265808,247.157196 98.513245,246.108932 96.421692,245.016632 
	C94.184418,243.738037 92.426613,242.137741 90.359138,241.343628 
	C85.806442,239.594894 84.161819,236.498199 84.917984,231.428802 
M112.216118,170.336472 
	C112.607178,170.427353 112.998238,170.518219 113.628609,170.177979 
	C113.628609,170.177979 113.435402,170.631638 113.669090,171.278564 
	C115.110855,174.184494 116.552628,177.090424 118.004433,180.710159 
	C118.133514,181.167618 118.262589,181.625092 118.188393,182.629456 
	C118.490036,182.982483 118.791672,183.335510 119.184044,184.279709 
	C119.487610,184.515961 119.791168,184.752213 120.139992,185.487015 
	C120.210632,185.638184 120.281265,185.789368 120.182739,186.604385 
	C120.561340,187.399261 120.939934,188.194153 121.132133,189.648712 
	C121.751083,190.101898 122.370033,190.555084 123.173874,191.632629 
	C123.966240,193.150223 124.758606,194.667801 125.696991,196.888748 
	C126.780754,198.933899 127.864525,200.979065 128.981979,203.745743 
	C130.356293,206.494034 131.730606,209.242310 133.115799,212.642868 
	C133.754654,213.758850 134.393494,214.874817 135.050491,216.530334 
	C135.273102,216.792175 135.495712,217.054016 135.732162,217.344421 
	C135.732162,217.344421 135.694092,217.352325 135.813400,218.050735 
	C137.153717,220.725677 138.494019,223.400604 139.877869,226.741364 
	C140.309540,227.507553 140.741196,228.273758 141.174988,229.588531 
	C141.417603,229.846878 141.660233,230.105225 141.948944,231.058853 
	C143.305862,233.703735 144.662781,236.348602 146.035965,239.655014 
	C146.660019,240.781479 147.284073,241.907928 147.968414,243.725739 
	C148.891678,245.525330 149.814941,247.324921 150.818573,249.812790 
	C151.540680,251.212952 152.262802,252.613129 153.054016,254.711533 
	C154.100403,256.800812 155.146805,258.890106 156.294434,261.630402 
	C157.167389,263.121216 158.040329,264.612000 158.980240,265.996765 
	C158.980240,265.996765 158.892685,266.086884 159.160370,266.717499 
	C163.463165,269.259094 167.765976,271.800690 172.708008,274.719879 
	C172.708008,270.764130 172.708008,267.865784 172.879089,264.075684 
	C172.820450,261.046875 172.761810,258.018097 172.881500,254.144821 
	C172.819092,252.427963 172.756683,250.711105 172.881180,248.150162 
	C172.819412,246.429657 172.757629,244.709167 172.889755,242.145157 
	C172.819565,240.422531 172.749390,238.699905 172.867767,236.106873 
	C172.808502,233.736771 172.749222,231.366669 172.884766,228.152573 
	C172.815659,226.429642 172.746567,224.706696 172.881500,222.106049 
	C172.823914,219.400726 172.766312,216.695389 172.896301,213.105072 
	C172.825806,210.398605 172.755310,207.692154 172.884003,204.119873 
	C172.964584,201.752884 173.045151,199.385880 173.919067,197.014740 
	C175.139313,196.868408 176.359573,196.722092 179.041519,196.400482 
	C176.848267,191.428925 174.988647,187.213638 172.967026,182.102249 
	C172.872742,179.074509 172.778458,176.046768 172.905777,172.139893 
	C172.838287,169.429535 172.770813,166.719177 172.921051,163.130646 
	C172.842087,160.424286 172.763123,157.717911 172.901382,154.117050 
	C172.827560,150.753296 172.753723,147.389526 172.896133,143.136536 
	C172.827301,140.098785 172.758453,137.061020 172.899933,133.165375 
	C172.830002,131.112839 172.760071,129.060303 172.900391,126.129128 
	C172.830643,123.429314 172.760910,120.729507 172.902206,117.147881 
	C172.838577,114.438210 172.774948,111.728539 172.914673,108.104210 
	C172.914673,103.527145 172.914673,98.950073 172.914673,92.971329 
	C167.536804,96.395393 163.166702,99.177826 158.523117,102.170502 
	C158.477142,102.275253 158.366165,102.409149 158.397568,102.479202 
	C158.486526,102.677582 158.633774,102.849831 158.827225,103.884491 
	C158.902634,105.591850 158.978027,107.299217 158.918594,109.898674 
	C158.969360,112.602081 159.020126,115.305489 158.932404,118.899429 
	C158.981018,121.601791 159.029633,124.304153 158.916794,127.870605 
	C158.971207,129.916306 159.025604,131.961990 158.923279,134.904526 
	C158.975815,137.938873 159.028351,140.973236 158.918564,144.903641 
	C158.973389,147.937958 159.028198,150.972290 158.914658,154.901810 
	C158.970383,157.936768 159.026108,160.971725 158.909500,164.893112 
	C158.961777,167.597061 159.014038,170.301025 158.889236,173.918365 
	C158.837158,178.259521 158.785065,182.600662 157.999207,187.157928 
	C157.508255,189.759247 157.017303,192.360565 156.358200,195.852859 
	C156.074524,193.326401 155.886566,191.652527 155.698624,189.978668 
	C155.846756,192.674667 152.523041,197.139191 158.840683,197.924484 
	C158.916153,199.947754 158.991623,201.971008 158.871887,204.877625 
	C158.937851,207.583115 159.003830,210.288605 158.884109,213.878967 
	C158.951569,216.584686 159.019043,219.290390 158.905365,222.860947 
	C158.966049,224.917084 159.026733,226.973221 158.960129,228.846481 
	C158.960129,228.846481 158.752380,228.927017 158.345016,229.173080 
	C157.946320,229.424179 157.547638,229.675293 156.859894,229.347763 
	C156.033218,227.860199 155.206558,226.372635 154.198624,224.153091 
	C152.505066,220.681534 150.811508,217.209991 149.053192,213.056534 
	C148.092728,211.233521 147.132263,209.410492 146.084457,206.914612 
	C145.061676,204.941513 144.038910,202.968414 142.957443,200.267166 
	C141.897842,198.175842 140.838257,196.084518 139.748917,193.349518 
	C139.636963,192.939926 139.525009,192.530350 140.136520,191.907913 
	C141.275620,190.090530 142.414703,188.273148 143.553802,186.455765 
	C141.434265,185.651093 139.326340,184.812881 137.185089,184.070847 
	C136.771042,183.927338 136.226715,184.159760 135.948242,184.018127 
	C135.948242,184.018127 135.766403,184.240616 135.782166,183.725723 
	C135.552383,183.482101 135.322617,183.238495 134.694595,182.434189 
	C133.722412,180.616714 132.750229,178.799225 131.809372,176.491562 
	C131.691132,176.148529 131.454102,175.941513 131.004868,175.957260 
	C131.004868,175.957260 131.121368,175.905518 131.071854,175.178940 
	C129.372696,171.788177 127.673538,168.397430 125.962830,164.343887 
	C125.332047,163.220016 124.701263,162.096161 124.007584,160.261887 
	C122.743927,157.810806 121.480263,155.359726 120.139648,152.225769 
	C119.411896,150.815903 118.684143,149.406052 117.975677,147.457291 
	C117.745285,147.203766 117.514893,146.950256 117.266762,146.673630 
	C117.266762,146.673630 117.291573,146.650452 117.211555,145.946121 
	C115.876244,143.267670 114.540932,140.589218 113.123230,137.178131 
	C111.950676,134.774719 110.778122,132.371292 109.438515,129.625473 
	C105.880554,131.844971 102.862923,133.727417 99.266319,135.759445 
	C98.818947,136.113922 98.371574,136.468399 97.401764,137.155609 
	C97.374260,137.749939 97.346756,138.344269 97.161362,139.837204 
	C97.216393,142.564529 97.271423,145.291840 97.167908,148.866806 
	C97.226585,150.584824 97.285271,152.302856 97.176048,154.864822 
	C97.238922,156.579971 97.301804,158.295105 97.184227,160.821777 
	C97.239388,163.219101 97.294548,165.616409 97.178070,168.755325 
	C97.235519,170.842606 97.292961,172.929886 97.170815,175.932953 
	C97.222778,180.950760 97.274742,185.968567 97.139641,191.871994 
	C97.211922,194.577393 97.284203,197.282806 97.167656,200.860916 
	C97.231606,203.235428 97.295547,205.609924 97.168045,208.867783 
	C97.227852,211.570358 97.287666,214.272934 97.156898,217.835358 
	C97.219376,219.882843 97.281845,221.930344 97.151947,224.811890 
	C96.338470,229.584991 97.700775,233.006271 103.250824,234.619339 
	C105.786598,235.994995 108.322372,237.370636 111.278923,238.809097 
	C111.392525,238.724731 111.610764,238.625351 111.601196,238.558655 
	C111.564255,238.301147 111.454590,238.054077 111.406410,236.956070 
	C111.328995,234.976273 111.251579,232.996460 111.379608,230.158478 
	C111.305176,228.111893 111.230751,226.065308 111.370514,223.160248 
	C111.284454,221.109970 111.198402,219.059692 111.342171,216.131378 
	C111.261543,213.423096 111.180916,210.714798 111.337128,207.130569 
	C111.268059,204.421982 111.198990,201.713379 111.376801,198.212585 
	C111.417793,196.561844 111.458786,194.911087 112.012894,193.198227 
	C111.841072,192.710175 111.669250,192.222137 111.464745,191.111542 
	C111.473236,190.488403 111.481728,189.865250 112.095764,189.120071 
	C112.800789,187.865173 115.544586,186.334991 111.514771,184.842484 
	C111.389946,181.892395 111.265129,178.942322 111.403839,175.176712 
	C111.321342,173.478058 111.238853,171.779404 111.297920,170.304443 
	C111.297920,170.304443 111.545715,170.211304 111.602104,170.186646 
	C111.602104,170.186646 111.636940,170.135895 112.216118,170.336472 
M150.238052,193.423828 
	C150.593658,193.406357 150.949249,193.388901 151.304855,193.371445 
	C150.871994,193.245544 150.439133,193.119644 150.021347,192.319000 
	C149.909027,191.540100 149.796722,190.761200 149.684418,189.982315 
	C149.407501,190.069855 149.130569,190.157410 148.853653,190.244949 
	C149.234543,191.165131 149.615417,192.085312 150.238052,193.423828 
M149.780243,195.443649 
	C149.194290,194.956635 148.608353,194.469635 148.019699,193.170181 
	C148.019699,191.448013 148.019699,189.725845 148.019699,188.003677 
	C147.411606,188.115463 146.803528,188.227264 146.195435,188.339066 
	C146.788589,190.234619 147.381760,192.130188 148.053467,194.664856 
	C148.691940,195.120056 149.330414,195.575256 150.413818,196.561569 
	C151.595566,196.469116 152.777313,196.376648 153.959061,196.284195 
	C153.921631,195.911041 153.884201,195.537903 153.846771,195.164764 
	C152.571579,195.434021 151.296402,195.703278 149.780243,195.443649 
M185.104401,167.821243 
	C185.171310,169.218124 185.238220,170.615021 185.094330,172.922562 
	C184.981232,177.937439 184.868149,182.952301 184.058334,188.132812 
	C182.556152,190.701645 181.053986,193.270477 179.117981,196.581192 
	C181.447968,196.760880 183.147461,196.891953 185.056931,197.667542 
	C185.143570,198.107544 185.230194,198.547531 185.090103,199.838150 
	C185.151642,201.883759 185.213181,203.929352 185.045807,206.869324 
	C185.128143,210.240814 185.210480,213.612320 185.073685,217.851761 
	C185.149246,220.229630 185.224808,222.607513 185.086243,225.822723 
	C185.155716,227.543152 185.225174,229.263565 185.080460,231.822647 
	C185.157516,233.545258 185.234573,235.267853 185.098846,237.890976 
	C185.176437,241.584991 185.254044,245.279022 185.114487,249.828461 
	C185.184814,251.878342 185.255142,253.928207 185.108887,256.831177 
	C185.166519,258.877014 185.224167,260.922821 185.070221,263.868195 
	C185.070221,267.195618 185.070221,270.523041 185.070221,274.769714 
	C189.470566,272.283936 193.074677,270.653229 196.155609,268.328949 
	C197.599533,267.239685 198.034241,264.812592 199.070892,262.142609 
	C199.017014,260.425476 198.963150,258.708374 199.066772,256.102448 
	C199.015259,253.399155 198.963730,250.695862 199.085983,247.090866 
	C199.036819,243.726181 198.987656,240.361496 199.111404,236.174683 
	C199.052795,234.781937 198.994186,233.389206 199.110626,231.134384 
	C199.051468,229.088516 198.992310,227.042648 199.114868,224.111603 
	C199.058411,221.406769 199.001953,218.701950 199.121338,215.102448 
	C199.060349,212.065872 198.999359,209.029282 199.102951,205.101547 
	C199.193985,202.095245 199.285004,199.088959 200.055237,196.085373 
	C201.076050,194.483673 202.096863,192.881973 203.201355,191.007629 
	C203.201355,191.007629 202.949921,190.873016 203.629929,191.024673 
	C204.083939,190.953918 204.537933,190.883179 205.454666,191.059540 
	C205.616074,191.126770 205.777481,191.194000 205.953430,191.857727 
	C206.657013,191.667023 207.360596,191.476318 208.834244,191.156616 
	C209.866898,191.200623 210.899567,191.244614 211.918610,192.077713 
	C212.269867,193.719742 212.621109,195.361786 212.972366,197.003815 
	C213.373917,196.924164 213.775467,196.844513 214.177017,196.764862 
	C214.473602,194.939087 214.770187,193.113297 215.775681,191.121872 
	C216.498566,191.157730 217.221466,191.193588 217.966888,192.025940 
	C218.546692,193.567535 219.126495,195.109146 219.706268,196.650742 
	C220.553101,196.168152 221.399918,195.685547 222.765579,195.514404 
	C222.908615,195.656631 223.051636,195.798874 223.243484,196.584641 
	C224.088501,197.799789 224.933517,199.014923 225.949036,200.057480 
	C225.949036,200.057480 225.750488,200.196899 225.869110,200.893265 
	C227.679916,203.920303 229.490738,206.947342 231.402496,210.638550 
	C233.539566,214.117401 235.676636,217.596252 237.936172,221.764252 
	C239.237534,223.847076 240.538895,225.929886 241.949860,228.699799 
	C243.016052,230.460999 244.082230,232.222198 245.243851,234.688370 
	C246.050537,235.887421 246.857208,237.086487 247.918259,238.663651 
	C250.476181,237.030807 252.804581,235.544479 255.899658,233.928589 
	C257.373718,233.034454 258.847778,232.140320 260.566223,231.097946 
	C259.336853,229.096954 258.344574,227.481827 257.177063,225.172745 
	C255.476746,222.386078 253.776413,219.599411 252.005051,216.135773 
	C250.722519,214.075638 249.439987,212.015488 248.021667,209.252579 
	C244.688171,203.499939 241.354675,197.747299 238.439560,191.399094 
	C239.629196,191.210648 240.818817,191.022217 242.926285,191.028275 
	C248.817657,191.028275 254.709030,191.028275 260.651825,191.028275 
	C260.651825,186.244003 260.651825,182.130630 260.849884,177.176315 
	C260.785095,175.455170 260.720306,173.734024 260.847412,171.193436 
	C260.781891,169.797607 260.716370,168.401764 260.847382,166.149292 
	C260.780060,164.108368 260.712738,162.067429 260.847046,159.184616 
	C260.778168,157.460403 260.709290,155.736206 260.831757,153.170700 
	C260.769806,151.452927 260.707855,149.735153 260.830109,147.179535 
	C260.782257,145.467896 260.734406,143.756256 260.890350,141.253662 
	C260.104584,139.313049 259.876434,136.472046 258.439850,135.582413 
	C250.859406,130.888107 242.974380,126.685684 234.755112,121.869713 
	C232.252213,120.541115 229.749313,119.212517 226.856934,117.298157 
	C222.922623,115.132965 218.988327,112.967766 214.670456,110.263672 
	C212.104141,108.865906 209.537811,107.468132 206.547073,105.537552 
	C199.703552,101.609299 192.860016,97.681046 185.289505,93.335495 
	C185.289505,98.581512 185.289505,102.811752 185.134369,107.885979 
	C185.192780,109.595879 185.251175,111.305786 185.118561,113.874962 
	C185.178177,115.921646 185.237793,117.968338 185.111420,120.859940 
	C185.171005,122.582214 185.230591,124.304489 185.102661,126.884666 
	C185.172226,128.929108 185.241776,130.973541 185.123062,133.837784 
	C185.186844,135.230667 185.250610,136.623566 185.108994,138.904846 
	C185.169769,141.943863 185.230560,144.982895 185.105042,148.881500 
	C185.172958,150.924728 185.240875,152.967957 185.107300,155.870163 
	C185.173187,157.919144 185.239059,159.968140 185.106842,162.833984 
	C185.178864,164.224548 185.250885,165.615097 185.104401,167.821243 
M152.476105,187.071579 
	C152.227524,187.218018 151.978928,187.364441 151.730331,187.510864 
	C151.986633,187.645905 152.300308,187.940186 152.484085,187.873962 
	C152.693878,187.798370 152.788010,187.401794 152.476105,187.071579 
z"/>
<path fill="#E4C977" opacity="1.000000" stroke="none" 
	d="
M103.174400,249.168488 
	C103.376968,249.021713 103.717232,249.115326 104.200531,249.437164 
	C103.999733,249.579849 103.655914,249.494354 103.174400,249.168488 
z"/>
<path fill="#E4C977" opacity="1.000000" stroke="none" 
	d="
M102.140106,248.397461 
	C102.376297,248.108917 102.666161,248.209183 102.981827,248.730331 
	C102.756073,248.940521 102.484787,248.818863 102.140106,248.397461 
z"/>
<path fill="#DABF6C" opacity="1.000000" stroke="none" 
	d="
M231.592041,105.344254 
	C231.697205,105.108452 231.868713,104.893639 232.040222,104.678833 
	C232.049301,104.865005 232.058380,105.051186 231.889694,105.365540 
	C231.711929,105.493721 231.658401,105.365234 231.592041,105.344254 
z"/>
<path fill="#FAFAFA" opacity="1.000000" stroke="none" 
	d="
M204.991943,190.812439 
	C204.537933,190.883179 204.083939,190.953918 203.301239,190.568542 
	C201.394882,187.064041 199.817230,184.015686 197.855591,180.225403 
	C199.656631,180.536621 202.146179,180.465088 204.157837,181.410446 
	C209.734207,184.030975 212.812408,182.989349 215.466064,177.081604 
	C225.949585,176.996307 235.974472,177.011810 246.084900,177.407913 
	C247.954163,178.161484 249.741760,178.856918 251.520767,178.835571 
	C254.567276,178.799011 257.608429,178.313980 260.651825,178.017273 
	C260.651825,182.130630 260.651825,186.244003 260.651825,191.028275 
	C254.709030,191.028275 248.817657,191.028275 242.469360,190.520828 
	C241.424149,183.852661 238.707092,183.323364 229.537292,187.583191 
	C224.537430,181.983978 217.393173,181.925674 211.401642,187.051239 
	C209.626816,186.329071 208.122787,185.717087 206.618744,185.105103 
	C206.076492,187.007553 205.534225,188.910004 204.991943,190.812439 
z"/>
<path fill="#AAABAC" opacity="1.000000" stroke="none" 
	d="
M235.195007,122.312637 
	C242.974380,126.685684 250.859406,130.888107 258.439850,135.582413 
	C259.876434,136.472046 260.104584,139.313049 260.348297,141.640961 
	C255.063919,142.736710 250.321609,143.445145 245.236359,144.127747 
	C234.937668,138.284866 224.981918,132.467819 215.159821,126.289497 
	C219.451233,125.619537 223.648499,125.560303 227.752304,124.910721 
	C230.306290,124.506454 232.718933,123.209137 235.195007,122.312637 
z"/>
<path fill="#F0F0F0" opacity="1.000000" stroke="none" 
	d="
M215.007462,177.182419 
	C212.812408,182.989349 209.734207,184.030975 204.157837,181.410446 
	C202.146179,180.465088 199.656631,180.536621 197.855591,180.225403 
	C199.817230,184.015686 201.394882,187.064041 202.961243,190.492706 
	C202.949921,190.873016 203.201355,191.007629 202.769043,191.037766 
	C199.870880,190.490082 198.889221,191.680603 198.488327,194.046661 
	C193.751221,195.452499 191.066208,201.234955 185.316833,198.987534 
	C185.230194,198.547531 185.143570,198.107544 185.063354,196.902710 
	C184.964874,193.414307 184.859970,190.690750 184.755051,187.967178 
	C184.868149,182.952301 184.981232,177.937439 185.644150,172.468079 
	C190.437820,172.009918 194.681671,172.006256 199.019867,172.392914 
	C199.518417,174.479507 197.920593,177.607941 202.391479,176.809296 
	C206.260864,176.819214 209.671524,176.743073 213.402313,176.761307 
	C214.150803,176.964600 214.579132,177.073502 215.007462,177.182419 
z"/>
<path fill="#CEB25F" opacity="1.000000" stroke="none" 
	d="
M154.379898,224.885071 
	C155.206558,226.372635 156.033218,227.860199 157.019958,229.943329 
	C157.580719,231.115585 157.981384,231.692276 158.996948,233.153976 
	C158.872147,230.997055 158.812256,229.962036 158.752380,228.927017 
	C158.752380,228.927017 158.960129,228.846481 159.400879,228.878143 
	C164.124420,228.938721 168.407181,228.967636 172.689957,228.996567 
	C172.749222,231.366669 172.808502,233.736771 172.326767,236.543182 
	C163.197083,237.650818 154.608383,238.322144 146.019699,238.993469 
	C144.662781,236.348602 143.305862,233.703735 141.878143,230.453400 
	C141.595840,229.578629 141.384354,229.309280 141.172867,229.039948 
	C140.741196,228.273758 140.309540,227.507553 140.250244,226.238342 
	C145.208389,225.451904 149.794144,225.168488 154.379898,224.885071 
z"/>
<path fill="#F0F0F0" opacity="1.000000" stroke="none" 
	d="
M205.223312,190.935989 
	C205.534225,188.910004 206.076492,187.007553 206.618744,185.105103 
	C208.122787,185.717087 209.626816,186.329071 211.401642,187.051239 
	C217.393173,181.925674 224.537430,181.983978 229.537292,187.583191 
	C238.707092,183.323364 241.424149,183.852661 242.010437,190.423584 
	C240.818817,191.022217 239.629196,191.210648 237.888580,191.746109 
	C235.747894,193.248138 232.741974,194.483383 232.802124,195.544907 
	C233.149353,201.672943 228.611481,199.515396 225.750488,200.196899 
	C225.750488,200.196899 225.949036,200.057480 225.972839,199.788727 
	C227.068146,197.730988 228.139648,195.942017 229.211166,194.153046 
	C228.851517,193.949280 228.491867,193.745514 228.132217,193.541748 
	C226.486359,194.341537 224.840500,195.141312 223.194641,195.941101 
	C223.051636,195.798874 222.908615,195.656631 222.447083,195.038177 
	C220.733826,193.451126 219.339081,192.340286 217.944351,191.229446 
	C217.221466,191.193588 216.498566,191.157730 215.041504,191.068054 
	C213.515625,191.105682 212.723923,191.197144 211.932220,191.288605 
	C210.899567,191.244614 209.866898,191.200623 208.108597,191.075134 
	C206.901596,191.082840 206.420242,191.172028 205.938904,191.261230 
	C205.777481,191.194000 205.616074,191.126770 205.223312,190.935989 
z"/>
<path fill="#F5DF8D" opacity="1.000000" stroke="none" 
	d="
M118.391663,182.082550 
	C118.262589,181.625092 118.133514,181.167618 118.018707,179.962753 
	C117.796249,175.588852 120.303085,175.421753 122.860985,175.481812 
	C125.616241,175.546494 128.368057,175.758041 131.121368,175.905518 
	C131.121368,175.905518 131.004868,175.957260 131.080139,176.142609 
	C131.273926,176.630676 131.481476,176.848602 131.778061,176.981750 
	C132.750229,178.799225 133.722412,180.616714 134.877182,182.980103 
	C135.295319,183.764221 135.530853,184.002426 135.766403,184.240616 
	C135.766403,184.240616 135.948242,184.018127 135.877838,184.452789 
	C136.250931,186.145279 136.694412,187.403122 137.153137,188.923462 
	C137.387238,189.448944 137.606079,189.711914 137.998978,190.180084 
	C138.586365,190.963776 138.999710,191.542267 139.413055,192.120758 
	C139.525009,192.530350 139.636963,192.939926 139.343079,193.664307 
	C134.371704,194.086975 129.292801,191.079987 125.550972,196.185394 
	C124.758606,194.667801 123.966240,193.150223 123.065079,191.020630 
	C122.410370,189.935440 121.864449,189.462234 121.318527,188.989029 
	C120.939934,188.194153 120.561340,187.399261 120.390945,186.155884 
	C120.431015,185.467758 120.262871,185.228119 120.094727,184.988480 
	C119.791168,184.752213 119.487610,184.515961 119.124878,183.754059 
	C118.841034,182.846451 118.616348,182.464508 118.391663,182.082550 
M134.421082,188.485153 
	C134.421082,188.485153 134.523300,188.425888 134.421082,188.485153 
z"/>
<path fill="#F5DF8D" opacity="1.000000" stroke="none" 
	d="
M172.684174,173.019028 
	C172.778458,176.046768 172.872742,179.074509 172.932953,182.798843 
	C172.871613,183.675949 172.844315,183.856476 172.671158,184.115265 
	C172.342346,184.549011 172.438690,184.802719 172.834351,185.305176 
	C172.834045,186.122971 172.813705,186.590240 172.580734,187.243713 
	C172.488571,188.282761 172.609039,189.135590 172.764832,190.242783 
	C172.748962,190.660492 172.697784,190.823853 172.276428,190.987686 
	C170.596848,192.102158 169.287476,193.216125 168.094315,194.231216 
	C168.123199,194.317581 167.923782,193.721207 167.725784,193.120941 
	C167.001129,193.549957 166.275055,193.982910 165.410461,194.498444 
	C165.022263,192.531952 164.727127,191.036911 164.516617,189.970551 
	C162.609360,191.744156 160.862167,193.368912 159.040192,194.551483 
	C158.887939,191.720123 158.810471,189.330978 158.732986,186.941818 
	C158.785065,182.600662 158.837158,178.259521 159.435974,173.459930 
	C164.216522,173.007339 168.450348,173.013184 172.684174,173.019028 
z"/>
<path fill="#949697" opacity="1.000000" stroke="none" 
	d="
M215.054016,110.802567 
	C218.988327,112.967766 222.922623,115.132965 226.622162,117.671448 
	C221.165390,118.278946 215.925735,118.335060 210.731659,118.850471 
	C209.065613,119.015785 207.520020,120.394722 205.555603,121.155334 
	C203.054214,121.044388 201.639236,116.850372 198.537872,119.990570 
	C193.853821,119.990311 189.575623,120.002663 185.297409,120.015015 
	C185.237793,117.968338 185.178177,115.921646 185.661224,113.442627 
	C194.426529,113.006828 202.651764,113.106194 210.869400,112.901283 
	C212.280823,112.866089 213.659958,111.535011 215.054016,110.802567 
z"/>
<path fill="#E6CD7A" opacity="1.000000" stroke="none" 
	d="
M124.070480,160.972305 
	C124.701263,162.096161 125.332047,163.220016 125.662979,164.833725 
	C121.387222,167.092926 117.411308,168.862274 113.435394,170.631622 
	C113.435402,170.631638 113.628609,170.177979 113.618607,170.142914 
	C113.291977,169.753860 112.975342,169.399902 112.486450,168.799255 
	C111.980881,168.384766 111.647591,168.216980 111.314293,168.049179 
	C111.391434,168.769882 111.468575,169.490601 111.545715,170.211304 
	C111.545715,170.211304 111.297920,170.304443 110.798981,170.167801 
	C105.983269,169.358688 101.666489,168.686203 97.349709,168.013733 
	C97.294548,165.616409 97.239388,163.219101 97.719307,160.414490 
	C106.859749,160.328918 115.465118,160.650604 124.070480,160.972305 
z"/>
<path fill="#E4E4E4" opacity="1.000000" stroke="none" 
	d="
M225.809799,200.545074 
	C228.611481,199.515396 233.149353,201.672943 232.802124,195.544907 
	C232.741974,194.483383 235.747894,193.248138 237.679398,192.043884 
	C241.354675,197.747299 244.688171,203.499939 247.612427,209.616791 
	C241.902649,209.978790 236.602097,209.976578 231.301559,209.974365 
	C229.490738,206.947342 227.679916,203.920303 225.809799,200.545074 
z"/>
<path fill="#F5DF8D" opacity="1.000000" stroke="none" 
	d="
M97.326706,190.986374 
	C97.274742,185.968567 97.222778,180.950760 97.664749,175.476501 
	C102.485893,175.344101 106.813103,175.668167 111.140312,175.992249 
	C111.265129,178.942322 111.389946,181.892395 111.368835,185.624359 
	C111.102448,186.936020 110.982002,187.465805 110.509514,188.085358 
	C108.783562,191.357040 106.906113,192.912781 103.150871,191.318451 
	C101.466156,190.603195 99.283440,191.060928 97.326706,190.986374 
z"/>
<path fill="#CEB25F" opacity="1.000000" stroke="none" 
	d="
M97.326462,148.019165 
	C97.271423,145.291840 97.216393,142.564529 97.434799,139.175537 
	C97.780212,137.950211 97.852203,137.386536 97.924194,136.822861 
	C98.371574,136.468399 98.818947,136.113922 99.784088,136.025009 
	C104.603111,136.830627 108.904366,137.370697 113.205620,137.910767 
	C114.540932,140.589218 115.876244,143.267670 116.775169,146.397888 
	C110.001343,147.239487 103.663902,147.629318 97.326462,148.019165 
z"/>
<path fill="#D6D6D6" opacity="1.000000" stroke="none" 
	d="
M231.352020,210.306458 
	C236.602097,209.976578 241.902649,209.978790 247.680328,209.968170 
	C249.439987,212.015488 250.722519,214.075638 252.004822,216.856979 
	C250.788284,218.612320 249.679123,220.337082 248.334732,220.545654 
	C244.883408,221.081116 241.327698,220.943604 237.813705,221.075104 
	C235.676636,217.596252 233.539566,214.117401 231.352020,210.306458 
z"/>
<path fill="#7C7D7E" opacity="1.000000" stroke="none" 
	d="
M185.289505,107.041992 
	C185.289505,102.811752 185.289505,98.581512 185.289505,93.335495 
	C192.860016,97.681046 199.703552,101.609299 206.495850,106.072769 
	C203.425171,107.067726 200.408554,107.876633 197.385574,107.901260 
	C193.356155,107.934097 189.321762,107.357063 185.289505,107.041992 
z"/>
<path fill="#EBD582" opacity="1.000000" stroke="none" 
	d="
M159.114975,194.993668 
	C160.862167,193.368912 162.609360,191.744156 164.516617,189.970551 
	C164.727127,191.036911 165.022263,192.531952 165.410461,194.498444 
	C166.275055,193.982910 167.001129,193.549957 167.725784,193.120941 
	C167.923782,193.721207 168.123199,194.317581 168.094315,194.231216 
	C169.287476,193.216125 170.596848,192.102158 172.374771,191.410324 
	C172.937454,193.561279 173.031586,195.290085 173.125717,197.018890 
	C173.045151,199.385880 172.964584,201.752884 172.345718,204.551468 
	C167.560654,204.653473 163.313889,204.323883 159.067108,203.994278 
	C158.991623,201.971008 158.916153,199.947754 158.882477,197.155579 
	C158.987839,195.922333 159.051407,195.457993 159.114975,194.993668 
z"/>
<path fill="#B7B7B7" opacity="1.000000" stroke="none" 
	d="
M198.938507,236.996796 
	C198.987656,240.361496 199.036819,243.726181 198.585785,247.553177 
	C193.834274,248.334671 189.582947,248.653854 185.331635,248.973038 
	C185.254044,245.279022 185.176437,241.584991 185.626587,237.439896 
	C190.415726,236.991486 194.677109,236.994141 198.938507,236.996796 
z"/>
<path fill="#B08F3D" opacity="1.000000" stroke="none" 
	d="
M172.703156,254.989319 
	C172.761810,258.018097 172.820450,261.046875 172.356689,264.528931 
	C167.520432,265.350403 163.206558,265.718658 158.892685,266.086884 
	C158.892685,266.086884 158.980240,265.996765 158.976624,265.643799 
	C158.951385,263.270203 159.537445,260.857758 156.193192,260.979401 
	C155.146805,258.890106 154.100403,256.800812 153.387360,254.424469 
	C155.332108,254.728546 156.947632,255.828003 158.554153,255.814972 
	C163.272415,255.776703 167.987076,255.296478 172.703156,254.989319 
z"/>
<path fill="#9D9FA0" opacity="1.000000" stroke="none" 
	d="
M205.919327,121.218414 
	C207.520020,120.394722 209.065613,119.015785 210.731659,118.850471 
	C215.925735,118.335060 221.165390,118.278946 226.816895,117.964333 
	C229.749313,119.212517 232.252213,120.541115 234.975067,122.091171 
	C232.718933,123.209137 230.306290,124.506454 227.752304,124.910721 
	C223.648499,125.560303 219.451233,125.619537 214.847565,126.185074 
	C211.574203,124.700752 208.746765,122.959587 205.919327,121.218414 
z"/>
<path fill="#919191" opacity="1.000000" stroke="none" 
	d="
M185.211945,107.463989 
	C189.321762,107.357063 193.356155,107.934097 197.385574,107.901260 
	C200.408554,107.876633 203.425171,107.067726 206.708054,106.339172 
	C209.537811,107.468132 212.104141,108.865906 214.862244,110.533112 
	C213.659958,111.535011 212.280823,112.866089 210.869400,112.901283 
	C202.651764,113.106194 194.426529,113.006828 185.756729,113.012985 
	C185.251175,111.305786 185.192780,109.595879 185.211945,107.463989 
z"/>
<path fill="#E4C977" opacity="1.000000" stroke="none" 
	d="
M124.039032,160.617096 
	C115.465118,160.650604 106.859749,160.328918 97.809540,160.008728 
	C97.301804,158.295105 97.238922,156.579971 97.706070,154.441895 
	C105.562927,153.648865 112.889763,153.278763 120.216599,152.908646 
	C121.480263,155.359726 122.743927,157.810806 124.039032,160.617096 
z"/>
<path fill="#A2803A" opacity="1.000000" stroke="none" 
	d="
M158.796600,101.960258 
	C163.166702,99.177826 167.536804,96.395393 172.914673,92.971329 
	C172.914673,98.950073 172.914673,103.527145 172.436569,108.492073 
	C167.656784,108.922150 163.355103,108.964363 159.053421,109.006577 
	C158.978027,107.299217 158.902634,105.591850 158.863037,103.192680 
	C158.864761,102.320663 158.830673,102.140457 158.796600,101.960258 
z"/>
<path fill="#C3A755" opacity="1.000000" stroke="none" 
	d="
M146.027832,239.324249 
	C154.608383,238.322144 163.197083,237.650818 172.232483,236.978378 
	C172.749390,238.699905 172.819565,240.422531 172.361115,242.567581 
	C163.857681,243.004807 155.882904,243.019592 147.908112,243.034393 
	C147.284073,241.907928 146.660019,240.781479 146.027832,239.324249 
z"/>
<path fill="#DABF6C" opacity="1.000000" stroke="none" 
	d="
M172.679901,144.025772 
	C172.753723,147.389526 172.827560,150.753296 172.354309,154.566589 
	C167.565842,154.679626 163.324432,154.343124 159.083023,154.006622 
	C159.028198,150.972290 158.973389,147.937958 159.457001,144.453918 
	C164.223602,144.011383 168.451752,144.018585 172.679901,144.025772 
z"/>
<path fill="#D6D6D6" opacity="1.000000" stroke="none" 
	d="
M198.938385,205.992706 
	C198.999359,209.029282 199.060349,212.065872 198.626434,215.610260 
	C193.851974,216.406647 189.572388,216.695221 185.292816,216.983810 
	C185.210480,213.612320 185.128143,210.240814 185.606781,206.421448 
	C190.424622,205.979950 194.681488,205.986328 198.938385,205.992706 
z"/>
<path fill="#DABF6C" opacity="1.000000" stroke="none" 
	d="
M120.178123,152.567200 
	C112.889763,153.278763 105.562927,153.648865 97.790024,154.019928 
	C97.285271,152.302856 97.226585,150.584824 97.247185,148.442993 
	C103.663902,147.629318 110.001343,147.239487 116.815178,146.750046 
	C117.291573,146.650452 117.266762,146.673630 117.264854,146.951874 
	C117.494095,147.485489 117.725243,147.740829 117.956390,147.996185 
	C118.684143,149.406052 119.411896,150.815903 120.178123,152.567200 
z"/>
<path fill="#B89845" opacity="1.000000" stroke="none" 
	d="
M172.792328,254.567078 
	C167.987076,255.296478 163.272415,255.776703 158.554153,255.814972 
	C156.947632,255.828003 155.332108,254.728546 153.352814,254.075348 
	C152.262802,252.613129 151.540680,251.212952 151.122986,249.322205 
	C158.516373,248.885834 165.605316,248.940033 172.694275,248.994232 
	C172.756683,250.711105 172.819092,252.427963 172.792328,254.567078 
z"/>
<path fill="#BDBEBF" opacity="1.000000" stroke="none" 
	d="
M185.291336,148.021912 
	C185.230560,144.982895 185.169769,141.943863 185.598801,138.462616 
	C190.365036,138.014725 194.641464,138.009079 199.006226,138.450592 
	C199.042572,141.933945 198.990585,144.970169 198.479752,148.002319 
	C193.777710,148.006149 189.534515,148.014023 185.291336,148.021912 
z"/>
<path fill="#CEB25F" opacity="1.000000" stroke="none" 
	d="
M172.788025,143.581146 
	C168.451752,144.018585 164.223602,144.011383 159.538177,144.005890 
	C159.028351,140.973236 158.975815,137.938873 159.390549,134.507141 
	C164.135086,134.080933 168.412354,134.052094 172.689621,134.023270 
	C172.758453,137.061020 172.827301,140.098785 172.788025,143.581146 
z"/>
<path fill="#E6CD7A" opacity="1.000000" stroke="none" 
	d="
M143.016129,200.995316 
	C144.038910,202.968414 145.061676,204.941513 146.069489,207.673767 
	C144.809784,209.283295 143.664093,210.598190 142.300034,210.889114 
	C139.293442,211.530319 136.176712,211.655090 133.104919,211.990601 
	C131.730606,209.242310 130.356293,206.494034 129.299316,203.238373 
	C134.083145,202.152435 138.549637,201.573883 143.016129,200.995316 
z"/>
<path fill="#BF9D4F" opacity="1.000000" stroke="none" 
	d="
M172.691162,118.029694 
	C172.760910,120.729507 172.830643,123.429314 172.372833,126.569183 
	C167.589615,127.008331 163.333923,127.007423 159.078247,127.006516 
	C159.029633,124.304153 158.981018,121.601791 159.433502,118.450691 
	C164.186783,118.011200 168.438980,118.020447 172.691162,118.029694 
z"/>
<path fill="#BF9D4F" opacity="1.000000" stroke="none" 
	d="
M172.787720,248.572205 
	C165.605316,248.940033 158.516373,248.885834 151.082825,248.978073 
	C149.814941,247.324921 148.891678,245.525330 147.938263,243.380066 
	C155.882904,243.019592 163.857681,243.004807 172.264160,242.989334 
	C172.757629,244.709167 172.819412,246.429657 172.787720,248.572205 
z"/>
<path fill="#E4C977" opacity="1.000000" stroke="none" 
	d="
M158.998840,154.454224 
	C163.324432,154.343124 167.565842,154.679626 172.245697,155.013840 
	C172.763123,157.717911 172.842087,160.424286 172.388000,163.572571 
	C167.597260,164.011887 163.339554,164.009277 159.081848,164.006683 
	C159.026108,160.971725 158.970383,157.936768 158.998840,154.454224 
z"/>
<path fill="#DABF6C" opacity="1.000000" stroke="none" 
	d="
M172.708725,213.990067 
	C172.766312,216.695389 172.823914,219.400726 172.352386,222.545822 
	C167.621872,222.087143 163.106842,225.225479 159.086517,221.996109 
	C159.019043,219.290390 158.951569,216.584686 159.383072,213.496857 
	C164.157593,213.406509 168.433167,213.698288 172.708725,213.990067 
z"/>
<path fill="#B08F3D" opacity="1.000000" stroke="none" 
	d="
M172.796692,117.588791 
	C168.438980,118.020447 164.186783,118.011200 159.502747,118.005424 
	C159.020126,115.305489 158.969360,112.602081 158.986008,109.452629 
	C163.355103,108.964363 167.656784,108.922150 172.334885,108.949402 
	C172.774948,111.728539 172.838577,114.438210 172.796692,117.588791 
z"/>
<path fill="#EBD582" opacity="1.000000" stroke="none" 
	d="
M113.552246,170.955093 
	C117.411308,168.862274 121.387222,167.092926 125.668755,165.165115 
	C127.673538,168.397430 129.372696,171.788177 131.096619,175.542221 
	C128.368057,175.758041 125.616241,175.546494 122.860985,175.481812 
	C120.303085,175.421753 117.796249,175.588852 118.013695,179.605850 
	C116.552628,177.090424 115.110855,174.184494 113.552246,170.955093 
z"/>
<path fill="#EBD582" opacity="1.000000" stroke="none" 
	d="
M142.986786,200.631241 
	C138.549637,201.573883 134.083145,202.152435 129.282471,202.877609 
	C127.864525,200.979065 126.780754,198.933899 125.623978,196.537079 
	C129.292801,191.079987 134.371704,194.086975 139.357941,193.986145 
	C140.838257,196.084518 141.897842,198.175842 142.986786,200.631241 
z"/>
<path fill="#E4C977" opacity="1.000000" stroke="none" 
	d="
M172.802521,213.547577 
	C168.433167,213.698288 164.157593,213.406509 159.475922,213.054413 
	C159.003830,210.288605 158.937851,207.583115 158.969498,204.435944 
	C163.313889,204.323883 167.560654,204.653473 172.246124,204.984375 
	C172.755310,207.692154 172.825806,210.398605 172.802521,213.547577 
z"/>
<path fill="#E4C977" opacity="1.000000" stroke="none" 
	d="
M97.347473,216.975510 
	C97.287666,214.272934 97.227852,211.570358 97.705597,208.424332 
	C102.528862,207.989426 106.814575,207.997971 111.100296,208.006516 
	C111.180916,210.714798 111.261543,213.423096 110.757011,216.565979 
	C105.897057,216.992218 101.622269,216.983871 97.347473,216.975510 
z"/>
<path fill="#CEB25F" opacity="1.000000" stroke="none" 
	d="
M102.891075,234.049255 
	C97.700775,233.006271 96.338470,229.584991 97.690872,224.396271 
	C102.538635,223.993332 106.847473,224.006027 111.156311,224.018723 
	C111.230751,226.065308 111.305176,228.111893 110.906143,230.618103 
	C107.918808,232.068237 105.404938,233.058746 102.891075,234.049255 
z"/>
<path fill="#F0D984" opacity="1.000000" stroke="none" 
	d="
M97.233170,191.429184 
	C99.283440,191.060928 101.466156,190.603195 103.150871,191.318451 
	C106.906113,192.912781 108.783562,191.357040 110.631454,188.414734 
	C111.233696,188.850281 111.361961,189.046204 111.490227,189.242111 
	C111.481728,189.865250 111.473236,190.488403 111.355576,191.804565 
	C111.330864,192.751862 111.415321,193.006104 111.499771,193.260345 
	C111.458786,194.911087 111.417793,196.561844 110.814163,198.607269 
	C105.953171,199.330704 101.654831,199.659454 97.356483,199.988220 
	C97.284203,197.282806 97.211922,194.577393 97.233170,191.429184 
z"/>
<path fill="#EBD582" opacity="1.000000" stroke="none" 
	d="
M158.995667,164.449890 
	C163.339554,164.009277 167.597260,164.011887 172.279144,164.011658 
	C172.770813,166.719177 172.838287,169.429535 172.794968,172.579468 
	C168.450348,173.013184 164.216522,173.007339 159.524506,173.003235 
	C159.014038,170.301025 158.961777,167.597061 158.995667,164.449890 
z"/>
<path fill="#EAEAEA" opacity="1.000000" stroke="none" 
	d="
M199.020660,205.547119 
	C194.681488,205.986328 190.424622,205.979950 185.721237,205.974258 
	C185.213181,203.929352 185.151642,201.883759 185.203461,199.412842 
	C191.066208,201.234955 193.751221,195.452499 198.567749,194.399902 
	C199.131363,195.161331 199.253693,195.621994 199.376038,196.082657 
	C199.285004,199.088959 199.193985,202.095245 199.020660,205.547119 
z"/>
<path fill="#CDCDCD" opacity="1.000000" stroke="none" 
	d="
M237.874939,221.419678 
	C241.327698,220.943604 244.883408,221.081116 248.334732,220.545654 
	C249.679123,220.337082 250.788284,218.612320 252.040344,217.195465 
	C253.776413,219.599411 255.476746,222.386078 256.860107,225.683197 
	C251.642181,226.799988 246.741211,227.406357 241.840240,228.012711 
	C240.538895,225.929886 239.237534,223.847076 237.874939,221.419678 
z"/>
<path fill="#EBD582" opacity="1.000000" stroke="none" 
	d="
M97.262070,200.424561 
	C101.654831,199.659454 105.953171,199.330704 110.690720,199.003372 
	C111.198990,201.713379 111.268059,204.421982 111.218712,207.568542 
	C106.814575,207.997971 102.528862,207.989426 97.801315,207.982666 
	C97.295547,205.609924 97.231606,203.235428 97.262070,200.424561 
z"/>
<path fill="#D2B867" opacity="1.000000" stroke="none" 
	d="
M154.289261,224.519073 
	C149.794144,225.168488 145.208389,225.451904 140.228485,225.905441 
	C138.494019,223.400604 137.153717,220.725677 136.126938,217.735443 
	C141.399063,220.030762 147.716797,218.196030 149.117950,213.738449 
	C150.811508,217.209991 152.505066,220.681534 154.289261,224.519073 
z"/>
<path fill="#CDCDCD" opacity="1.000000" stroke="none" 
	d="
M185.183258,217.417786 
	C189.572388,216.695221 193.851974,216.406647 198.538528,216.057587 
	C199.001953,218.701950 199.058411,221.406769 198.565750,224.555542 
	C193.777878,224.994781 189.539124,224.990082 185.300354,224.985382 
	C185.224808,222.607513 185.149246,220.229630 185.183258,217.417786 
z"/>
<path fill="#DABF6C" opacity="1.000000" stroke="none" 
	d="
M149.085571,213.397491 
	C147.716797,218.196030 141.399063,220.030762 136.067291,217.386230 
	C135.694092,217.352325 135.732162,217.344421 135.730194,217.059418 
	C135.496262,216.513199 135.264297,216.251999 135.032349,215.990799 
	C134.393494,214.874817 133.754654,213.758850 133.110352,212.316742 
	C136.176712,211.655090 139.293442,211.530319 142.300034,210.889114 
	C143.664093,210.598190 144.809784,209.283295 146.113159,208.010193 
	C147.132263,209.410492 148.092728,211.233521 149.085571,213.397491 
z"/>
<path fill="#C6C6C6" opacity="1.000000" stroke="none" 
	d="
M241.895050,228.356262 
	C246.741211,227.406357 251.642181,226.799988 256.947723,226.030167 
	C258.344574,227.481827 259.336853,229.096954 260.566223,231.097946 
	C258.847778,232.140320 257.373718,233.034454 255.057800,233.964264 
	C251.193436,233.994431 248.170914,233.988907 245.148407,233.983398 
	C244.082230,232.222198 243.016052,230.460999 241.895050,228.356262 
z"/>
<path fill="#9D9FA0" opacity="1.000000" stroke="none" 
	d="
M185.281799,262.968658 
	C185.224167,260.922821 185.166519,258.877014 185.652740,256.404724 
	C190.434174,256.315918 194.671722,256.653595 198.909286,256.991241 
	C198.963150,258.708374 199.017014,260.425476 198.597885,262.628967 
	C193.843857,263.066467 189.562820,263.017548 185.281799,262.968658 
z"/>
<path fill="#AAABAC" opacity="1.000000" stroke="none" 
	d="
M198.988037,256.546844 
	C194.671722,256.653595 190.434174,256.315918 185.761032,255.978180 
	C185.255142,253.928207 185.184814,251.878342 185.223053,249.400757 
	C189.582947,248.653854 193.834274,248.334671 198.498901,248.004028 
	C198.963730,250.695862 199.015259,253.399155 198.988037,256.546844 
z"/>
<path fill="#919191" opacity="1.000000" stroke="none" 
	d="
M185.176010,263.418427 
	C189.562820,263.017548 193.843857,263.066467 198.525604,263.053589 
	C198.034241,264.812592 197.599533,267.239685 196.155609,268.328949 
	C193.074677,270.653229 189.470566,272.283936 185.070221,274.769714 
	C185.070221,270.523041 185.070221,267.195618 185.176010,263.418427 
z"/>
<path fill="#C3A755" opacity="1.000000" stroke="none" 
	d="
M158.997528,127.438560 
	C163.333923,127.007423 167.589615,127.008331 172.267715,127.008499 
	C172.760071,129.060303 172.830002,131.112839 172.794769,133.594330 
	C168.412354,134.052094 164.135086,134.080933 159.468918,134.058731 
	C159.025604,131.961990 158.971207,129.916306 158.997528,127.438560 
z"/>
<path fill="#AAABAC" opacity="1.000000" stroke="none" 
	d="
M185.311325,133.017975 
	C185.241776,130.973541 185.172226,128.929108 185.640961,126.452423 
	C190.428925,126.015800 194.678604,126.011414 199.008270,126.439255 
	C199.033813,128.916550 198.979340,130.961609 198.466858,133.004822 
	C193.776337,133.007980 189.543839,133.012985 185.311325,133.017975 
z"/>
<path fill="#CDCDCD" opacity="1.000000" stroke="none" 
	d="
M185.198181,148.451706 
	C189.534515,148.014023 193.777710,148.006149 198.564178,148.433746 
	C199.051071,150.913986 198.994675,152.958710 198.479584,155.001648 
	C193.783539,155.003616 189.546173,155.007401 185.308807,155.011185 
	C185.240875,152.967957 185.172958,150.924728 185.198181,148.451706 
z"/>
<path fill="#DABF6C" opacity="1.000000" stroke="none" 
	d="
M111.263412,223.589478 
	C106.847473,224.006027 102.538635,223.993332 97.787064,223.979248 
	C97.281845,221.930344 97.219376,219.882843 97.252182,217.405426 
	C101.622269,216.983871 105.897057,216.992218 110.642105,217.004990 
	C111.198402,219.059692 111.284454,221.109970 111.263412,223.589478 
z"/>
<path fill="#E4E4E4" opacity="1.000000" stroke="none" 
	d="
M260.645416,160.026505 
	C260.712738,162.067429 260.780060,164.108368 260.315979,166.579895 
	C255.479263,167.338593 251.173935,167.666702 246.726807,167.574799 
	C246.686401,165.099808 246.787750,163.044800 247.331879,160.994446 
	C252.064896,160.674881 256.355164,160.350693 260.645416,160.026505 
z"/>
<path fill="#F0D984" opacity="1.000000" stroke="none" 
	d="
M111.272079,175.584473 
	C106.813103,175.668167 102.485893,175.344101 97.754547,175.018600 
	C97.292961,172.929886 97.235519,170.842606 97.263885,168.384521 
	C101.666489,168.686203 105.983269,169.358688 110.728203,170.055954 
	C111.238853,171.779404 111.321342,173.478058 111.272079,175.584473 
z"/>
<path fill="#F0F0F0" opacity="1.000000" stroke="none" 
	d="
M260.750854,177.596802 
	C257.608429,178.313980 254.567276,178.799011 251.520767,178.835571 
	C249.741760,178.856918 247.954163,178.161484 246.240051,177.076843 
	C246.497131,174.908356 246.684601,173.451553 247.342224,171.996948 
	C252.093414,172.003708 256.374481,172.008286 260.655518,172.012878 
	C260.720306,173.734024 260.785095,175.455170 260.750854,177.596802 
z"/>
<path fill="#D6D6D6" opacity="1.000000" stroke="none" 
	d="
M185.208054,155.440674 
	C189.546173,155.007401 193.783539,155.003616 198.570267,155.423798 
	C199.054642,157.567108 198.989670,159.286484 198.493347,161.005035 
	C193.809647,161.341873 189.557297,161.679504 185.304932,162.017120 
	C185.239059,159.968140 185.173187,157.919144 185.208054,155.440674 
z"/>
<path fill="#9D9FA0" opacity="1.000000" stroke="none" 
	d="
M198.928284,126.007019 
	C194.678604,126.011414 190.428925,126.015800 185.734711,126.023476 
	C185.230591,124.304489 185.171005,122.582214 185.204407,120.437477 
	C189.575623,120.002663 193.853821,119.990311 198.617004,120.414490 
	C199.044067,122.569695 198.986176,124.288353 198.928284,126.007019 
z"/>
<path fill="#CDCDCD" opacity="1.000000" stroke="none" 
	d="
M260.645874,148.017380 
	C260.707855,149.735153 260.769806,151.452927 260.303680,153.593155 
	C255.464691,154.340179 251.153778,154.664749 246.706375,154.570511 
	C246.669662,152.111298 246.769440,150.070877 247.339539,148.022278 
	C252.088547,148.015182 256.367218,148.016281 260.645874,148.017380 
z"/>
<path fill="#C6C6C6" opacity="1.000000" stroke="none" 
	d="
M185.193298,225.404053 
	C189.539124,224.990082 193.777878,224.994781 198.474884,224.998138 
	C198.992310,227.042648 199.051468,229.088516 198.608185,231.555511 
	C193.835373,231.645752 189.565002,231.314865 185.294647,230.983994 
	C185.225174,229.263565 185.155716,227.543152 185.193298,225.404053 
z"/>
<path fill="#D6D6D6" opacity="1.000000" stroke="none" 
	d="
M246.842865,154.989319 
	C251.153778,154.664749 255.464691,154.340179 260.208008,154.013794 
	C260.709290,155.736206 260.778168,157.460403 260.746216,159.605560 
	C256.355164,160.350693 252.064896,160.674881 247.188858,160.583740 
	C246.682999,158.442062 246.762939,156.715683 246.842865,154.989319 
z"/>
<path fill="#C6C6C6" opacity="1.000000" stroke="none" 
	d="
M260.737976,147.598450 
	C256.367218,148.016281 252.088547,148.015182 247.190674,147.711823 
	C246.240738,146.324219 245.910019,145.238907 245.579285,144.153595 
	C250.321609,143.445145 255.063919,142.736710 260.246399,142.036438 
	C260.734406,143.756256 260.782257,145.467896 260.737976,147.598450 
z"/>
<path fill="#E4E4E4" opacity="1.000000" stroke="none" 
	d="
M185.205887,162.425552 
	C189.557297,161.679504 193.809647,161.341873 198.582321,161.435684 
	C199.043365,163.912247 198.984100,165.957382 198.499130,168.001740 
	C193.823257,167.669205 189.573074,167.337433 185.322906,167.005661 
	C185.250885,165.615097 185.178864,164.224548 185.205887,162.425552 
z"/>
<path fill="#A2803A" opacity="1.000000" stroke="none" 
	d="
M159.026520,266.402191 
	C163.206558,265.718658 167.520432,265.350403 172.271149,264.974792 
	C172.708008,267.865784 172.708008,270.764130 172.708008,274.719879 
	C167.765976,271.800690 163.463165,269.259094 159.026520,266.402191 
z"/>
<path fill="#D2B867" opacity="1.000000" stroke="none" 
	d="
M158.995941,222.428528 
	C163.106842,225.225479 167.621872,222.087143 172.250366,222.984680 
	C172.746567,224.706696 172.815659,226.429642 172.787354,228.574570 
	C168.407181,228.967636 164.124420,228.938721 159.464539,228.969574 
	C159.026733,226.973221 158.966049,224.917084 158.995941,222.428528 
z"/>
<path fill="#BDBEBF" opacity="1.000000" stroke="none" 
	d="
M185.187561,231.403320 
	C189.565002,231.314865 193.835373,231.645752 198.520660,231.986542 
	C198.994186,233.389206 199.052795,234.781937 199.024963,236.585739 
	C194.677109,236.994141 190.415726,236.991486 185.732971,236.989639 
	C185.234573,235.267853 185.157516,233.545258 185.187561,231.403320 
z"/>
<path fill="#B7B7B7" opacity="1.000000" stroke="none" 
	d="
M185.217194,133.427887 
	C189.543839,133.012985 193.776337,133.007980 198.549927,133.416107 
	C199.033310,135.220627 198.975601,136.612015 198.917892,138.003418 
	C194.641464,138.009079 190.365036,138.014725 185.701492,138.018402 
	C185.250610,136.623566 185.186844,135.230667 185.217194,133.427887 
z"/>
<path fill="#C3A755" opacity="1.000000" stroke="none" 
	d="
M113.164429,137.544449 
	C108.904366,137.370697 104.603111,136.830627 100.073578,135.950211 
	C102.862923,133.727417 105.880554,131.844971 109.438515,129.625473 
	C110.778122,132.371292 111.950676,134.774719 113.164429,137.544449 
z"/>
<path fill="#EAEAEA" opacity="1.000000" stroke="none" 
	d="
M260.751465,171.603149 
	C256.374481,172.008286 252.093414,172.003708 247.201447,171.612122 
	C246.683212,170.148346 246.775894,169.071594 246.868591,167.994812 
	C251.173935,167.666702 255.479263,167.338593 260.217712,167.008209 
	C260.716370,168.401764 260.781891,169.797607 260.751465,171.603149 
z"/>
<path fill="#EAEAEA" opacity="1.000000" stroke="none" 
	d="
M185.213654,167.413452 
	C189.573074,167.337433 193.823257,167.669205 198.593430,168.395294 
	C199.050797,169.860611 198.988159,170.931595 198.925537,172.002594 
	C194.681671,172.006256 190.437820,172.009918 185.749557,172.012741 
	C185.238220,170.615021 185.171310,169.218124 185.213654,167.413452 
z"/>
<path fill="#1C1B0F" opacity="1.000000" stroke="none" 
	d="
M173.522400,197.016815 
	C173.031586,195.290085 172.937454,193.561279 172.744965,191.409836 
	C172.697784,190.823853 172.748962,190.660492 172.880310,189.884521 
	C172.904770,188.533798 172.849060,187.795654 172.793350,187.057526 
	C172.813705,186.590240 172.834045,186.122971 172.951950,185.076630 
	C172.971985,184.344070 172.894485,184.190536 172.817001,184.037018 
	C172.844315,183.856476 172.871613,183.675949 173.013977,183.246902 
	C174.988647,187.213638 176.848267,191.428925 179.041519,196.400482 
	C176.359573,196.722092 175.139313,196.868408 173.522400,197.016815 
z"/>
<path fill="#1D1D1D" opacity="1.000000" stroke="none" 
	d="
M139.774780,192.014343 
	C138.999710,191.542267 138.586365,190.963776 138.012756,189.907928 
	C137.614304,189.174026 137.376099,188.917496 137.137878,188.660965 
	C136.694412,187.403122 136.250931,186.145279 135.774963,184.553101 
	C136.226715,184.159760 136.771042,183.927338 137.185089,184.070847 
	C139.326340,184.812881 141.434265,185.651093 143.553802,186.455765 
	C142.414703,188.273148 141.275620,190.090530 139.774780,192.014343 
z"/>
<path fill="#C3A755" opacity="1.000000" stroke="none" 
	d="
M103.070953,234.334290 
	C105.404938,233.058746 107.918808,232.068237 110.803413,231.047195 
	C111.251579,232.996460 111.328995,234.976273 111.207794,237.586746 
	C110.958832,238.393707 110.908493,238.570007 110.858147,238.746292 
	C108.322372,237.370636 105.786598,235.994995 103.070953,234.334290 
z"/>
<path fill="#1D1D1D" opacity="1.000000" stroke="none" 
	d="
M184.406693,188.049988 
	C184.859970,190.690750 184.964874,193.414307 184.958374,196.580444 
	C183.147461,196.891953 181.447968,196.760880 179.117981,196.581192 
	C181.053986,193.270477 182.556152,190.701645 184.406693,188.049988 
z"/>
<path fill="#302B19" opacity="1.000000" stroke="none" 
	d="
M159.040192,194.551483 
	C159.051407,195.457993 158.987839,195.922333 158.824219,196.725342 
	C152.523041,197.139191 155.846756,192.674667 155.698624,189.978668 
	C155.886566,191.652527 156.074524,193.326401 156.358200,195.852859 
	C157.017303,192.360565 157.508255,189.759247 158.366089,187.049866 
	C158.810471,189.330978 158.887939,191.720123 159.040192,194.551483 
z"/>
<path fill="#B7B7B7" opacity="1.000000" stroke="none" 
	d="
M245.196136,234.335876 
	C248.170914,233.988907 251.193436,233.994431 254.674469,234.029053 
	C252.804581,235.544479 250.476181,237.030807 247.918259,238.663651 
	C246.857208,237.086487 246.050537,235.887421 245.196136,234.335876 
z"/>
<path fill="#303031" opacity="1.000000" stroke="none" 
	d="
M217.955627,191.627686 
	C219.339081,192.340286 220.733826,193.451126 222.187653,194.882462 
	C221.399918,195.685547 220.553101,196.168152 219.706284,196.650757 
	C219.126495,195.109146 218.546692,193.567535 217.955627,191.627686 
z"/>
<path fill="#E4E4E4" opacity="1.000000" stroke="none" 
	d="
M223.219055,196.262878 
	C224.840500,195.141312 226.486359,194.341537 228.132217,193.541748 
	C228.491867,193.745514 228.851517,193.949280 229.211166,194.153046 
	C228.139648,195.942017 227.068146,197.730988 225.887573,199.875015 
	C224.933517,199.014923 224.088501,197.799789 223.219055,196.262878 
z"/>
<path fill="#303031" opacity="1.000000" stroke="none" 
	d="
M199.715637,196.084015 
	C199.253693,195.621994 199.131363,195.161331 198.929626,194.347443 
	C198.889221,191.680603 199.870880,190.490082 202.727203,191.174103 
	C202.096863,192.881973 201.076050,194.483673 199.715637,196.084015 
z"/>
<path fill="#303031" opacity="1.000000" stroke="none" 
	d="
M211.925415,191.683167 
	C212.723923,191.197144 213.515625,191.105682 214.687057,191.150879 
	C214.770187,193.113297 214.473602,194.939087 214.177017,196.764862 
	C213.775467,196.844513 213.373917,196.924164 212.972366,197.003815 
	C212.621109,195.361786 212.269867,193.719742 211.925415,191.683167 
z"/>
<path fill="#1D1D1D" opacity="1.000000" stroke="none" 
	d="
M147.974915,194.025742 
	C147.381760,192.130188 146.788589,190.234619 146.195435,188.339066 
	C146.803528,188.227264 147.411606,188.115463 148.019699,188.003677 
	C148.019699,189.725845 148.019699,191.448013 148.008652,193.586411 
	C147.997604,194.002640 147.974915,194.025742 147.974915,194.025742 
z"/>
<path fill="#A2803A" opacity="1.000000" stroke="none" 
	d="
M156.243805,261.304901 
	C159.537445,260.857758 158.951385,263.270203 158.943146,265.696838 
	C158.040329,264.612000 157.167389,263.121216 156.243805,261.304901 
z"/>
<path fill="#73633B" opacity="1.000000" stroke="none" 
	d="
M111.792999,189.181091 
	C111.361961,189.046204 111.233696,188.850281 110.983490,188.324966 
	C110.982002,187.465805 111.102448,186.936020 111.428665,186.054733 
	C115.544586,186.334991 112.800789,187.865173 111.792999,189.181091 
z"/>
<path fill="#1D1D1D" opacity="1.000000" stroke="none" 
	d="
M150.021225,195.972534 
	C151.296402,195.703278 152.571579,195.434021 153.846771,195.164764 
	C153.884201,195.537903 153.921631,195.911041 153.959061,196.284195 
	C152.777313,196.376648 151.595566,196.469116 150.205475,196.281967 
	C149.997147,196.002365 150.021225,195.972534 150.021225,195.972534 
z"/>
<path fill="#302B19" opacity="1.000000" stroke="none" 
	d="
M158.548706,229.050049 
	C158.812256,229.962036 158.872147,230.997055 158.996948,233.153976 
	C157.981384,231.692276 157.580719,231.115585 157.164490,230.232635 
	C157.547638,229.675293 157.946320,229.424179 158.548706,229.050049 
z"/>
<path fill="#303031" opacity="1.000000" stroke="none" 
	d="
M205.946167,191.559479 
	C206.420242,191.172028 206.901596,191.082840 207.723572,191.139633 
	C207.360596,191.476318 206.657013,191.667023 205.946167,191.559479 
z"/>
<path fill="#EBD582" opacity="1.000000" stroke="none" 
	d="
M121.225327,189.318878 
	C121.864449,189.462234 122.410370,189.935440 122.972633,190.708466 
	C122.370033,190.555084 121.751083,190.101898 121.225327,189.318878 
z"/>
<path fill="#1D1D1D" opacity="1.000000" stroke="none" 
	d="
M149.996292,193.005493 
	C149.615417,192.085312 149.234543,191.165131 148.853653,190.244949 
	C149.130569,190.157410 149.407501,190.069855 149.684418,189.982315 
	C149.796722,190.761200 149.909027,191.540100 150.010742,192.659424 
	C150.000137,192.999847 149.996292,193.005493 149.996292,193.005493 
z"/>
<path fill="#73633B" opacity="1.000000" stroke="none" 
	d="
M111.573914,170.198975 
	C111.468575,169.490601 111.391434,168.769882 111.314293,168.049179 
	C111.647591,168.216980 111.980881,168.384766 112.262177,169.101608 
	C112.019104,169.812393 111.828026,169.974136 111.636940,170.135895 
	C111.636940,170.135895 111.602104,170.186646 111.573914,170.198975 
z"/>
<path fill="#1D1D1D" opacity="1.000000" stroke="none" 
	d="
M152.704254,187.108139 
	C152.788010,187.401794 152.693878,187.798370 152.484085,187.873962 
	C152.300308,187.940186 151.986633,187.645905 151.730331,187.510864 
	C151.978928,187.364441 152.227524,187.218018 152.704254,187.108139 
z"/>
<path fill="#1D1D1D" opacity="1.000000" stroke="none" 
	d="
M148.010010,193.992630 
	C148.608353,194.469635 149.194290,194.956635 149.900726,195.708099 
	C150.021225,195.972534 149.997147,196.002365 149.983002,196.016418 
	C149.330414,195.575256 148.691940,195.120056 148.014191,194.345306 
	C147.974915,194.025742 147.997604,194.002640 148.010010,193.992630 
z"/>
<path fill="#C3A755" opacity="1.000000" stroke="none" 
	d="
M97.662979,136.989227 
	C97.852203,137.386536 97.780212,137.950211 97.513748,138.726242 
	C97.346756,138.344269 97.374260,137.749939 97.662979,136.989227 
z"/>
<path fill="#EBD582" opacity="1.000000" stroke="none" 
	d="
M111.926529,170.236176 
	C111.828026,169.974136 112.019104,169.812393 112.434448,169.348297 
	C112.975342,169.399902 113.291977,169.753860 113.498955,170.358459 
	C112.998238,170.518219 112.607178,170.427353 111.926529,170.236176 
z"/>
<path fill="#EBD582" opacity="1.000000" stroke="none" 
	d="
M118.290024,182.356003 
	C118.616348,182.464508 118.841034,182.846451 119.079514,183.458466 
	C118.791672,183.335510 118.490036,182.982483 118.290024,182.356003 
z"/>
<path fill="#1D1D1D" opacity="1.000000" stroke="none" 
	d="
M150.003204,192.996796 
	C150.439133,193.119644 150.871994,193.245544 151.304855,193.371445 
	C150.949249,193.388901 150.593658,193.406357 150.117172,193.214661 
	C149.996292,193.005493 150.000137,192.999847 150.003204,192.996796 
z"/>
<path fill="#73633B" opacity="1.000000" stroke="none" 
	d="
M111.756332,193.229279 
	C111.415321,193.006104 111.330864,192.751862 111.371918,192.115845 
	C111.669250,192.222137 111.841072,192.710175 111.756332,193.229279 
z"/>
<path fill="#EBD582" opacity="1.000000" stroke="none" 
	d="
M131.793716,176.736664 
	C131.481476,176.848602 131.273926,176.630676 131.126862,176.099243 
	C131.454102,175.941513 131.691132,176.148529 131.793716,176.736664 
z"/>
<path fill="#302B19" opacity="1.000000" stroke="none" 
	d="
M158.659851,102.065384 
	C158.830673,102.140457 158.864761,102.320663 158.828461,102.766617 
	C158.633774,102.849831 158.486526,102.677582 158.397568,102.479202 
	C158.366165,102.409149 158.477142,102.275253 158.659851,102.065384 
z"/>
<path fill="#CEB25F" opacity="1.000000" stroke="none" 
	d="
M117.966034,147.726746 
	C117.725243,147.740829 117.494095,147.485489 117.273727,146.963440 
	C117.514893,146.950256 117.745285,147.203766 117.966034,147.726746 
z"/>
<path fill="#1D1D1D" opacity="1.000000" stroke="none" 
	d="
M135.774292,183.983170 
	C135.530853,184.002426 135.295319,183.764221 135.076294,183.260452 
	C135.322617,183.238495 135.552383,183.482101 135.774292,183.983170 
z"/>
<path fill="#EBD582" opacity="1.000000" stroke="none" 
	d="
M120.117355,185.237747 
	C120.262871,185.228119 120.431015,185.467758 120.475533,185.823975 
	C120.281265,185.789368 120.210632,185.638184 120.117355,185.237747 
z"/>
<path fill="#D2B867" opacity="1.000000" stroke="none" 
	d="
M135.041412,216.260559 
	C135.264297,216.251999 135.496262,216.513199 135.723267,217.045135 
	C135.495712,217.054016 135.273102,216.792175 135.041412,216.260559 
z"/>
<path fill="#D2B867" opacity="1.000000" stroke="none" 
	d="
M141.173920,229.314240 
	C141.384354,229.309280 141.595840,229.578629 141.855103,230.105774 
	C141.660233,230.105225 141.417603,229.846878 141.173920,229.314240 
z"/>
<path fill="#73633B" opacity="1.000000" stroke="none" 
	d="
M111.068535,238.777695 
	C110.908493,238.570007 110.958832,238.393707 111.190598,238.010269 
	C111.454590,238.054077 111.564255,238.301147 111.601196,238.558655 
	C111.610764,238.625351 111.392525,238.724731 111.068535,238.777695 
z"/>
<path fill="#010101" opacity="1.000000" stroke="none" 
	d="
M199.019882,172.392914 
	C198.988159,170.931595 199.050797,169.860611 199.019135,168.396057 
	C198.984100,165.957382 199.043365,163.912247 199.013672,161.436493 
	C198.989670,159.286484 199.054642,157.567108 199.028961,155.425598 
	C198.994675,152.958710 199.051071,150.913986 199.023041,148.437805 
	C198.990585,144.970169 199.042572,141.933945 199.006226,138.450577 
	C198.975601,136.612015 199.033310,135.220627 199.007935,133.417938 
	C198.979340,130.961609 199.033813,128.916550 199.008286,126.439255 
	C198.986176,124.288353 199.044067,122.569695 199.022827,120.427109 
	C201.639236,116.850372 203.054214,121.044388 205.555603,121.155342 
	C208.746765,122.959587 211.574203,124.700752 214.713898,126.546341 
	C224.981918,132.467819 234.937668,138.284866 245.236359,144.127747 
	C245.910019,145.238907 246.240738,146.324219 246.720337,147.720001 
	C246.769440,150.070877 246.669662,152.111298 246.706375,154.570511 
	C246.762939,156.715683 246.682999,158.442062 246.746094,160.579117 
	C246.787750,163.044800 246.686401,165.099808 246.726807,167.574814 
	C246.775894,169.071594 246.683212,170.148346 246.731293,171.609924 
	C246.684601,173.451553 246.497131,174.908356 246.154510,176.696228 
	C235.974472,177.011810 225.949585,176.996307 215.466064,177.081604 
	C214.579132,177.073502 214.150803,176.964600 213.421097,176.408234 
	C211.254700,174.436615 209.141846,171.472427 207.585266,171.740326 
	C205.477661,172.103073 203.796738,174.944916 201.932755,176.723236 
	C197.920593,177.607941 199.518417,174.479507 199.019882,172.392914 
z"/>
<path fill="#303031" opacity="1.000000" stroke="none" 
	d="
M202.391479,176.809296 
	C203.796738,174.944916 205.477661,172.103073 207.585266,171.740326 
	C209.141846,171.472427 211.254700,174.436615 213.100952,176.313858 
	C209.671524,176.743073 206.260864,176.819214 202.391479,176.809296 
z"/>
<path fill="#EBD582" opacity="1.000000" stroke="none" 
	d="
M134.472198,188.455521 
	C134.523300,188.425888 134.421082,188.485153 134.472198,188.455521 
z"/>
<path fill="#EBD582" opacity="1.000000" stroke="none" 
	d="
M137.153137,188.923462 
	C137.376099,188.917496 137.614304,189.174026 137.838715,189.702728 
	C137.606079,189.711914 137.387238,189.448944 137.153137,188.923462 
z"/>
<path fill="#CEB25F" opacity="1.000000" stroke="none" 
	d="
M172.580734,187.243713 
	C172.849060,187.795654 172.904770,188.533798 172.845001,189.630188 
	C172.609039,189.135590 172.488571,188.282761 172.580734,187.243713 
z"/>
<path fill="#CEB25F" opacity="1.000000" stroke="none" 
	d="
M172.671158,184.115265 
	C172.894485,184.190536 172.971985,184.344070 172.931915,184.726135 
	C172.438690,184.802719 172.342346,184.549011 172.671158,184.115265 
z"/>
</svg>